<?xml version="1.0" encoding="utf-8"?>
<!-- Generator: Adobe Illustrator 15.0.0, SVG Export Plug-In . SVG Version: 6.00 Build 0)  -->
<!DOCTYPE svg PUBLIC "-//W3C//DTD SVG 1.1//EN" "http://www.w3.org/Graphics/SVG/1.1/DTD/svg11.dtd">
<svg version="1.1" id="Layer_1" xmlns="http://www.w3.org/2000/svg" xmlns:xlink="http://www.w3.org/1999/xlink" x="0px" y="0px"
	 width="792px" height="612px" viewBox="0 0 792 612" enable-background="new 0 0 792 612" xml:space="preserve">
<g>
	<path d="M745.96,68c2.24,0,4.479,0,6.72,0c2.131,0.527,5.951,0.177,8.447,0.768c1.289,0.305,2.488,1.312,3.84,1.536
		c3.458,0.572,7.002-0.753,9.408,1.728c1.659,1.707,0.936,4.304,0.959,7.295c0.037,4.638,2.053,7.867,4.416,10.559
		c0,0.96,0,1.92,0,2.88c-0.304,0.336-0.257,1.022-0.384,1.536c-3.698,3.605-7.892-1.632-10.752-3.264
		c0.712,2.337,4.187,4.976,3.84,8.064c-0.249,2.216-2.342,2.528-4.607,3.264c-0.698-0.518-1.492-0.939-2.304-1.344
		c-0.784-2.341-1.677-4.067-3.264-5.951c-0.629-0.746-1.129-1.676-1.729-2.304c-0.495-0.52-1.294-0.623-1.92-1.152
		c-1.487-1.259-3.276-3.35-5.184-4.032c-0.633-0.226-0.889,0.372-1.151-0.384c-6.862,1.709-12.423,6.567-17.471,10.751
		c-1.692,1.403-3.634,2.748-4.992,4.224c-7.717,8.384-16.206,16.068-23.614,24.958c-7.393,8.872-14.045,18.192-20.158,28.414
		c-0.695,3.431-3.259,7.076-4.8,10.751c-2.919,6.96-5.183,13.718-7.872,20.926c-1.469,3.94-2.271,8.134-3.455,12.287
		c-1.729,6.06-3.647,12.073-5.567,18.047c-2.402,7.469-4.52,16.268-6.912,23.999c-1.822,5.891-3.226,11.926-5.375,17.471
		c-8.374,21.597-22.265,39.34-37.63,54.141c-7.721,7.436-15.924,14.553-26.302,19.582c-4.582,2.408-7.882,4.654-12.096,7.487
		c-1.934,1.301-4.083,1.899-4.991,4.032c-2.361,5.542,0.572,11.414,1.344,17.471c0.509,3.999,0.373,8.131-0.384,12.287
		c-0.332,1.82-0.492,4.096-1.152,5.76c-1.46,3.68-6.208,7.928-8.831,10.75c-3.224,3.47-6.576,6.506-9.216,10.367
		c0.805,12.083-0.895,23.473-0.959,35.711c-0.015,2.662-0.527,5.498-0.192,8.063c0.22,1.685,0.952,3.47,1.344,5.184
		c1.945,8.524,2.304,18.63,2.304,29.374c0,4.184-0.649,8.449-0.192,12.479c0.212,1.866,1.375,4.064,1.536,6.145
		c0.171,2.191-1.089,3.87-1.536,5.759c-0.945,3.989-0.274,8.853,0.96,12.288c0.419,1.164,1.688,1.991,2.112,3.263
		c0.736,2.216,0.427,5.111,0.191,6.911c-1.992,1.428-5.504,1.059-8.639,0.961c-3.182-0.101-6.334-0.205-8.831-0.576
		c-1.471-2.547-1.729-5.628-1.152-8.64c0.256-1.337,1.067-2.602,1.344-4.032c0.632-3.273,0.701-8.32-0.385-11.519
		c-0.443-1.31-1.601-1.729-1.919-2.495c-1.28-3.092-1.181-9.725-1.729-13.44c-0.996-6.77-2.263-13.04-3.455-19.39
		c-1.089-5.798-1.605-10.297-4.032-14.783c-0.549-1.016-1.356-1.682-1.536-3.072c-0.593-4.615,0.961-10.248,0.961-15.742
		c0-5.779-0.503-11.104-0.385-16.127c-2.013,0.676-4.935,2.104-7.679,2.688c-3.018,5.951-6.897,10.895-9.983,15.935
		c-2.224,3.63-4.573,7.153-5.376,12.095c-0.871,5.367,0.109,10.627-0.576,16.512c-0.273,2.354-0.621,4.818-1.151,7.295
		c-0.554,2.584-0.625,5.035-0.96,7.68c-0.273,2.147-0.801,4.01-1.152,6.72c-0.202,1.558-0.59,3.06-0.768,4.607
		c-0.266,2.314,0.138,4.886-0.384,7.104c-0.481,2.043-2.451,3.064-4.225,4.223c0.546,1.191-0.52,0.65-0.959,1.152
		c-0.601,1.256-1.203,2.509-2.112,3.456c-1.224,0.378-2.606,0.56-3.648,1.151c-0.593,0.338-0.758,0.887-1.343,1.344
		c-0.431,0.337-1.095,0.441-1.537,0.768c-2.905,2.146-5.352,5.33-7.295,8.641c-1.531,0.803-1.879,2.9-3.647,3.264
		c-2.283,0.468-3.666-1.473-5.951-1.729c-2.448-3.472-5.768-7.257-3.841-13.438c1.931-1.415,4.062-1.992,6.145-2.88
		c5.504-2.348,8.802-7.088,12.862-11.136c0.878-3.706-0.007-8.263-0.384-13.438c-0.507-6.965-0.408-14.557-1.92-21.119
		c-0.709-3.078-2.752-6.342-2.495-9.215c0.319-3.582,2.302-6.293,3.839-8.832c0.656-1.082,1.107-2.373,1.729-3.455
		c1.068-1.863,2.477-3.51,3.071-5.568c-3.428,1.097-6.584,2.737-10.175,3.84c-3.67,1.127-7.634,1.789-11.327,3.072
		c-1.476,0.512-2.904,1.387-4.416,1.92c-1.589,0.559-3.3,0.952-4.8,1.535c-0.852,0.332-1.453,1.039-2.304,1.344
		c-2.512,0.901-5.619,1.6-8.447,2.305c-11.615,2.896-25.48,3.363-39.549,2.496c-2.02,8.604,0.078,21.324-4.8,27.07
		c-1.613,5.881-4.375,15.248-2.112,23.613c0.481,1.779,1.538,2.979,1.729,4.416c0.425,3.207-1.381,7.135,0.575,9.407
		c1.022,0.778,2.341,1.706,4.032,2.304c0.458,1.274,1.924,1.568,2.88,2.496c1.099,1.067,2.042,3.146,2.495,4.992
		c0.455,1.85,1.072,4.477-0.576,5.951c-0.256,0-0.512,0-0.768,0c-1.115-0.549-1.185-2.144-2.496-2.496
		c0.235,2.883-2.814,2.23-3.263,0.385c-1.186,3.331-3.142-0.864-4.225-0.961c-6.099,3.239-17.392,1.959-19.967-3.455
		c0.451-7.865,0.794-15.218,2.496-22.463c0.841-3.58,1.447-7.142,1.536-10.943c0.086-3.672,0.589-7.342,0.768-11.135
		c0.806-17.047-6.861-25.759-14.975-34.75c-1.709,4.501-3.871,9.211-5.184,13.631c-1.533,5.161-1.697,10.436-4.416,14.976
		c0.011,1.034-0.298,1.749-0.384,2.688c-0.855,0.553-0.989,1.827-1.152,3.072c-3.414,4.585-10.294,5.705-11.711,12.286
		c-0.957-0.161-1.217,1.145-1.536,1.729c-1.437,2.637-2.873,6.272-3.839,9.408c0.603,3.033-0.696,6.75-1.92,9.599
		c-0.874,2.035-2.732,3.991-1.536,6.144c1.07,0.83,2.826-0.156,4.032,0.385c0.936-0.169,0.084,1.451,1.152,1.151
		c1.28,0.128,1.687,1.129,3.264,0.96c1.902,2.504,5.346,5.33,4.416,9.407c-2.657,0.114-3.256-1.208-4.992,0.191
		c-0.421-0.858-1.688-0.871-2.304-1.536c-0.754,1.89-2.74,1.193-4.032,0.193c-1.519,1.217-3.907,0.519-6.143,0.383
		c-2.982-0.18-6.521-0.135-9.983-0.768c-2.515-0.459-7.221-1.156-8.063-2.496c-1.728-2.748,2.96-8.83,3.84-10.751
		c1.775-3.876,2.523-7.761,3.84-11.52c1.006-0.454,1.388-1.879,1.92-2.88c1.665-3.134,4.125-6.481,4.992-10.559
		c2.683-4.37,4.468-9.702,6.719-15.168c1.123-2.724,1.564-5.585,2.112-8.83c0.518-3.068,1.468-6.197,1.728-9.216
		c0.863-10.026-0.918-19.686-0.576-30.142c-6.51-0.221-13.609,2.412-20.159,1.151c-1.307-0.251-2.577-0.999-3.84-1.151
		c-6.826-0.83-14.625,1.484-20.926,2.303c-10.363,1.348-21.025,2.762-30.526,5.184c-2.183,0.558-4.262,1.513-6.335,1.92
		c-1.198,0.236-2.423,0.1-3.648,0.385c-1.051,0.245-2.05,0.884-3.072,1.151c-3.441,0.903-6.808,1.558-10.175,2.688
		c-3.267,1.097-6.488,1.91-9.791,2.879c-4.348,1.277-8.455,3.236-12.863,4.416c-1.054,0.282-2.215,0.143-3.264,0.384
		c-2.79,0.642-5.593,1.929-8.448,2.688c-5.803,1.545-11.773,2.77-18.047,4.031c-9.316,1.874-19.741,3.385-30.718,4.416
		c-7.246,0.681-14.767,1.937-22.078,1.92c-1.853-0.004-3.676-0.384-5.568-0.384c-3.919,0-8.098,0.556-11.711,0.384
		c-3.772-0.179-7.521,0.488-10.943,0.768c-3.512,0.287-6.744,1.213-10.175,1.536c-0.807,0.076-1.641-0.283-2.496-0.192
		c-1.508,0.162-3.047,0.803-4.607,0.961c-1.805,0.182-3.624-0.043-5.376,0.191c-4.125,0.552-7.981,2.035-12.095,2.496
		c-3.142,0.351-6.44,0.293-9.792,0.768c-3.235,0.458-6.667,1.66-9.983,2.496c-3.446,0.868-7.023,1.287-10.175,2.304
		c-3.479,1.122-7.08,2.8-10.751,4.032c-1.8,0.604-3.665,1.31-5.567,1.919c-2.593,0.831-4.749,1.847-8.063,1.728
		c0-0.383,0-0.768,0-1.151c3.909-2.219,8.239-3.634,12.479-5.376c4.173-1.713,8.494-3.41,12.863-4.799
		c4.46-1.419,8.519-3.514,13.055-4.801c4.574-1.297,9.319-2.289,14.207-3.455c18.805-4.484,38.146-9.807,57.98-13.055
		c7.587-1.242,15.591-1.838,22.654-4.032c0.625-0.194,0.991-0.681,1.536-0.768c1.543-0.247,3.391-0.448,5.184-0.96
		c9.22-2.631,18.52-4.654,27.646-7.871c9.05-3.191,18.265-5.48,26.878-8.641c17.223-6.316,30.699-16.293,45.885-24.957
		c7.627-4.353,15.58-8.525,23.422-12.096c8.206-3.736,16.294-7.578,24.958-10.56c4.277-1.472,8.305-3.526,12.671-4.991
		c4.397-1.477,8.945-2.756,13.439-4.224c8.341-2.726,16.199-7.268,23.614-11.903c1.904-1.189,3.608-2.482,5.568-3.455
		c1.924-0.957,3.917-2.006,5.76-3.072c3.809-2.205,8.135-3.578,12.287-5.376c4.162-1.802,8.596-3.179,12.864-4.991
		c4.172-1.773,8.293-3.719,12.479-5.184c8.792-3.079,17.053-6.703,25.149-10.176c8.643-3.706,17.024-6.775,25.535-9.983
		c7.343-2.768,14.075-6.326,21.887-9.215c1.008-0.373,2.071-0.996,3.071-1.344c2.305-0.801,5.066-0.798,7.871-1.152
		c7.367-0.929,15.694-2.22,23.614-2.879c11.036-0.919,22.403-0.149,33.214-1.92c19.677-3.222,33.758-13.792,45.501-25.534
		c6.185-6.184,10.69-13.003,15.551-19.967c4.938-7.072,8.288-14.866,12.096-23.23c3.957-8.692,5.917-17.748,9.022-26.494
		c1.575-4.434,3.067-8.847,4.608-13.247c0.747-2.131,1.819-4.141,2.496-6.336c2.041-6.62,5.159-12.898,7.68-19.006
		c1.699-4.119,3.998-7.762,5.951-11.711c11.261-22.771,29.751-41.935,48.572-57.788C712.371,81.157,725.907,71.097,745.96,68z"/>
</g>
</svg>
