<?xml version="1.0" encoding="utf-8"?>
<!-- Generator: Adobe Illustrator 15.0.0, SVG Export Plug-In . SVG Version: 6.00 Build 0)  -->
<!DOCTYPE svg PUBLIC "-//W3C//DTD SVG 1.1//EN" "http://www.w3.org/Graphics/SVG/1.1/DTD/svg11.dtd">
<svg version="1.1" id="Layer_1" xmlns="http://www.w3.org/2000/svg" xmlns:xlink="http://www.w3.org/1999/xlink" x="0px" y="0px"
	 width="792px" height="612px" viewBox="0 0 792 612" enable-background="new 0 0 792 612" xml:space="preserve">
<g>
	<path fill-rule="evenodd" clip-rule="evenodd" d="M463.986,258c1,0,2,0,3,0c3.742,8.921,5.671,19.659,9.998,27.997
		c0,2.667,0,5.333,0,7.999c-2.906,10.759-13.566,13.764-24.997,15.998c-7.171,14.043,6.893,32.669-7.999,39.995
		c-7.537-1.244-10.972-0.081-14.998,4c-2.333,0-4.666,0-6.999,0c-0.027-0.973-1.224-0.776-1.999-1
		c0.316-6.349,8.983-4.348,9.998-9.999c1.244-13.89-23.322-22.863-36.995-12.998c-2.212,6.12,0.954,17.618-4,20.997
		c-3.92,0.906-6.237,1.219-8.999-1c0.974-4.691,7.167-4.164,5-11.998c-6.312,1.027-12.971,19.894-24.997,11.998
		c6.687-5.312,13.56-10.438,14.998-20.997c-8.356-7.975-13.043-19.619-21.997-26.997c-0.638-3.695,1.294-9.96-1-11.999c0-2,0-4,0-6
		c6.786,4.986,16.375,3.07,25.997,1c1.522,3.605-3.913,8.368,1,8.999c19.761-3.307,42.79-9.682,60.992-2
		c6.38,2.692,7.944,7.594,13.999,7.999C479.223,301.685,458.439,273.42,463.986,258z M439.988,342.989
		c2.437-1.446,3.533-9.95-0.999-9.999C439.616,336.029,437.709,341.604,439.988,342.989z"/>
	<g>
	</g>
</g>
</svg>
