<?xml version="1.0" encoding="utf-8"?>
<!-- Generator: Adobe Illustrator 15.0.0, SVG Export Plug-In . SVG Version: 6.00 Build 0)  -->
<!DOCTYPE svg PUBLIC "-//W3C//DTD SVG 1.1//EN" "http://www.w3.org/Graphics/SVG/1.1/DTD/svg11.dtd">
<svg version="1.1" id="Layer_1" xmlns="http://www.w3.org/2000/svg" xmlns:xlink="http://www.w3.org/1999/xlink" x="0px" y="0px"
	 width="792px" height="612px" viewBox="0 0 792 612" enable-background="new 0 0 792 612" xml:space="preserve">
<g>
	<path fill-rule="evenodd" clip-rule="evenodd" d="M459.612,73.124c9.786,0,19.573,0,29.359,0
		c9.246,3.246,17.379,6.806,25.864,10.485c8.196,3.554,18.774,10.792,27.263,11.884c14.269,1.835,24.915,1.879,34.952,4.893
		c70.701,21.232,82.455,96.521,113.244,162.875c11.068,4.543,27.22,4.003,39.146,7.689c0,1.398,0,2.796,0,4.194
		c-8.701,5.979-20.368,8.991-34.253,9.787c14.076,77.498,23.938,159.21,28.66,246.061c-6.788,1.422-14.375,5.59-20.971,4.894
		c3.238-50.761-12.057-99.896-24.467-144.002c-12.841-45.639-20.584-92.241-48.932-123.729
		c-20.864-5.467-35.621-17.041-58.72-20.272c-3.995,5.493,2.03,13.134,0,18.874c-16.595,12.026-50.841-1.112-71.302,6.99
		c-20.35,75.415,32.631,128.171,47.535,187.342c1.889,7.497,1.152,16.198,3.494,23.767c2.199,7.107,11.43,13.065,17.477,18.874
		c6.881,6.611,12.733,12.43,17.477,18.176c-7.334,9.442-17.859,15.694-29.36,20.971c-10.253,0-20.505,0-30.757,0
		c-1.904-4.412-10.28-1.032-14.68-1.398c-3.271-57.313-28.075-93.091-54.525-127.225c-5.533,13.387-10.511,28.471-16.777,44.738
		c-5.545,14.397-18.037,29.896-17.476,44.04c0.672,16.934,19.474,18.004,20.972,35.65c-1.512,4.081-11.182,0.004-12.583,4.194
		c-14.446,0-28.894,0-43.34,0c-6.203-3.584-16.838-2.734-23.068-6.291c16.592-37.217,34.223-81.1,29.359-134.914
		c-2.216-24.521-8.534-52.795,0.699-74.099c-40.477-8.666-68.767,21.396-104.156,25.166c-14.876,1.584-28.381-5.822-41.942-1.398
		c-14.223,4.641-16.151,27.07-34.952,25.165c-13.302,35.69-9.038,91.243,9.087,120.234c5.147,8.233,28.74,22.243,16.777,35.651
		c-13.324,14.933-50.473-3.377-70.603-0.699c3.077-39.915-10.175-69.498-17.476-101.36c-13.911,26.4-29.98,50.643-28.661,92.272
		c-20.589,4.091-42.682-0.654-59.418-4.893c0-1.864,0-3.729,0-5.593c26.725-46.858,59.264-107.998,58.719-177.555
		c-0.121-15.354-2.739-34.077-10.486-45.438c-2.198,15.277-3.932,31.02-6.291,46.136l-2.796-2.097H98.21
		c1.829-54.732-0.473-104.623,13.98-145.399C131.74,132.614,176.108,81.41,256.193,90.6c23.277,2.671,46.732,8.879,69.903,10.485
		C380.226,104.838,418.823,86.423,459.612,73.124z"/>
	<path fill-rule="evenodd" clip-rule="evenodd" d="M97.511,366.02h3.495c-3.385,28.072-8.585,58.056-19.573,76.195
		c-0.124-30.648,7.94-53.109,13.282-78.292L97.511,366.02z"/>
	<g>
		<path fill-rule="evenodd" clip-rule="evenodd" fill="none" stroke="#000000" stroke-width="6.4151" stroke-linecap="round" d="
			M97.511,366.02c2.308-10.865,2.79-21.847,4.194-32.854"/>
	</g>
</g>
</svg>
