<?xml version="1.0" encoding="utf-8"?>
<!-- Generator: Adobe Illustrator 15.0.0, SVG Export Plug-In . SVG Version: 6.00 Build 0)  -->
<!DOCTYPE svg PUBLIC "-//W3C//DTD SVG 1.1//EN" "http://www.w3.org/Graphics/SVG/1.1/DTD/svg11.dtd">
<svg version="1.1" id="Layer_1" xmlns="http://www.w3.org/2000/svg" xmlns:xlink="http://www.w3.org/1999/xlink" x="0px" y="0px"
	 width="792px" height="612px" viewBox="0 0 792 612" enable-background="new 0 0 792 612" xml:space="preserve">
<g>
	<path fill-rule="evenodd" clip-rule="evenodd" d="M330.016,11.067c2.549,0,5.098,0,7.646,0
		c8.001,1.847,15.997,10.771,25.124,13.108c8.722,2.234,18.715-0.546,27.309,2.731c6.432,2.453,8.075,9.146,14.2,9.831
		c3.805,0.426,6.854-1.095,9.831-2.73c3.383-1.859,5.36-4.463,7.646-4.916c4.339-0.86,7.67,0.624,8.739,3.277
		c2.897,7.195-7.02,10.415-8.739,14.2c3.136,8.317,22.239,5.76,22.394,15.839c0.198,13.063-24.791,3.655-34.409,8.193
		c-6.523,3.077-6.601,18.511-8.192,28.947c-1.987,13.028-4.702,21.526-4.916,32.225c-0.254,12.73,3.434,24.527,4.916,37.686
		c1.483,13.166-1.193,28.156,3.277,36.047c2.434,4.296,7.758,5.054,11.469,9.285c3.926,4.476,6.438,12.851,9.285,19.116
		c2.986,6.569,5.239,13.994,8.192,19.662c7.858,15.081,18.756,24.294,30.586,35.501c13.017,4.946,22.513,8.299,33.316,14.201
		c3.828,2.091,7.249,5.437,11.47,7.646c4.258,2.229,8.212,4.334,12.016,7.101c6.98,5.079,15.887,10.519,20.754,16.932
		c4.181,5.508,7.679,14.388,10.378,21.847c7.386,20.409,3.747,47.266,9.284,71.002c0.994,4.258,1.387,9.425,2.731,13.108
		c1.522,4.173,5.727,4.847,7.646,9.831c1.362,3.535,0.28,7.116,2.185,10.377c0,12.744,0,25.488,0,38.232
		c-1.766,0.965-1.715,3.747-3.823,4.369c-11.782-3.431-9.856-20.423-10.923-31.678c-3.568-37.648-12.006-75.35-15.84-111.966
		c-6.203,12.933-8.974,40.822-7.646,60.626c0.509,7.581,2.482,14.84,5.462,20.208c2.817,5.074,10.458,11.036,12.017,15.839
		c4.188,12.909,0.373,41.411-1.093,54.617c-1.069,9.633-2.319,17.99-2.731,26.216c-0.629,12.563,2.256,28.106-2.184,38.778
		c-5.004,12.028-29.497,24.133-39.325,8.739c4.372-4.004,10.707-6.043,16.386-8.739c12.754-14.786,11.718-47.208,10.377-75.371
		c-0.441-9.28,0.038-19.458-1.639-26.217c-2.579-10.397-12.408-19.172-17.478-27.309c0.195,13.421,9.373,23.503,6.554,37.686
		c-3.142,15.81-15.122,31.624-22.938,46.425c-4.165,7.888-7.717,15.715-10.924,23.485c-3.613,8.757-5.321,17.939-8.739,25.67
		c-5.161,11.68-21.703,15.158-32.77,20.209c-2.367,0-4.733,0-7.1,0c-8.869-7.685,4.43-14.973,10.923-17.478
		c3.268-5.836,8.754-9.452,13.654-13.654c8.722-27.472,31.35-52.211,31.678-86.295c0.056-5.833-0.507-13.266-2.731-19.116
		c-1.83-4.818-5.746-8.423-8.191-13.108c-7.305-13.996-10.763-31.517-21.301-43.147c-0.457-6.462-1.785-12.052-4.369-16.385
		c-17.672,1.214-40.594,0.371-56.803-3.277c-2.9,8.971-0.497,20.812,0.547,28.947c0.773,6.035,0.262,13.223,1.092,20.208
		c0.737,6.2,1.984,12.268,2.185,18.57c0.401,12.635-2.938,25.714-2.185,39.324c1.27,22.91,9.188,41.378,7.646,60.625
		c-0.08,1.009-0.412,3.883-0.546,4.369c-1.208,4.387-7.589,9.767-8.192,14.747c-0.375,3.096,2.393,6.819,1.639,9.831
		c-2.117,8.452-27.83,9.562-28.401,0.546c-0.373-5.875,8.484-6.34,11.47-9.831c4.625-5.411,3.779-12.441,7.646-17.478
		c-0.367-19.504,0.012-39.274-3.823-57.895c-3.021-14.665-6.764-29.409-7.1-45.878c-4.08,13.762-5.852,29.832-14.2,39.324
		c1.611,9.413,0.014,17.557-2.185,25.67c-1.137,4.197-3.636,8.391-4.369,12.562c-1.152,6.561-0.508,12.697-1.639,18.569
		c-2.108,10.952-5.911,20.435-11.469,28.947c-5.992,9.175-17.073,20.632-32.771,12.562c0-1.82,0-3.641,0-5.462
		c6.742-7.722,16.856-10.632,21.301-19.662c3.645-7.404,2.885-18.289,5.461-27.854c2.104-7.809,6.622-13.593,7.646-20.208
		c1.866-12.039,0.429-25.354,2.185-38.232c1.65-12.103,5.608-23.744,7.646-35.501c2.481-14.304-1.729-29.981-0.546-45.332
		c0.919-11.937,5.665-24.584,3.823-34.955c-0.621-3.498-2.958-7.905-4.916-12.016c-2.008-4.218-3.175-9.105-4.916-12.562
		c-4.525-8.986-13.661-13.787-14.747-25.67c-1.208-13.222,8.967-23.138,10.924-33.862c1.287-7.055,0.604-15.181,0-23.485
		c-1.537-21.117-8.632-39.58-7.101-60.625c0.76-10.445,5.055-20.65,6.554-31.678c0.609-4.482-0.122-9.223,0.546-13.654
		c0.794-5.271,4.08-10.377,6.008-15.293c5.554-14.16,13.332-34.49,10.923-53.525c-1.801-14.237-11.246-26.228-19.116-35.501
		c-0.457-3.002-0.336-6.582-2.185-8.193C333.508,37.279,309.645,20.04,330.016,11.067z"/>
	<g>
	</g>
</g>
</svg>
