<?xml version="1.0" encoding="utf-8"?>
<!-- Generator: Adobe Illustrator 15.0.0, SVG Export Plug-In . SVG Version: 6.00 Build 0)  -->
<!DOCTYPE svg PUBLIC "-//W3C//DTD SVG 1.1//EN" "http://www.w3.org/Graphics/SVG/1.1/DTD/svg11.dtd">
<svg version="1.1" id="Layer_1" xmlns="http://www.w3.org/2000/svg" xmlns:xlink="http://www.w3.org/1999/xlink" x="0px" y="0px"
	 width="792px" height="612px" viewBox="0 0 792 612" enable-background="new 0 0 792 612" xml:space="preserve">
<g>
	<path fill-rule="evenodd" clip-rule="evenodd" d="M583.946,93c1,0,1.999,0,2.999,0c-3.945,18.607,7.098,24.858,16.998,33.996
		c17.703,16.337,37.838,34.312,55.993,46.994c0,4,0,7.999,0,11.999c-2.786,7.879-7.986,13.344-13.998,17.998
		c-10.72,3.637-17.972-5.607-25.997-7.999c-14.732-4.391-30.13-0.088-41.994-8.999c-7.367,1.632-11.284,6.714-18.998,7.999
		c-5.394,10.436-10.998,22.348-17.998,34.996c-6.143,11.099-16.781,23.24-18.997,33.996c-1.248,6.06,0.407,12.038,0,16.998
		c-1.549,18.862-10.249,33.458-20.997,44.994c-0.523,16.106-4.146,32.351-5,48.994c-0.477,9.297,1.309,19.079,0,27.996
		c-0.795,5.414-4.311,10.426-4.999,15.998c-2.078,16.82,2.194,31.752,6.999,46.994c7.146,6.523,18.752,13.905,17.998,24.997
		c0.513,4.18-4.59,2.743-6,4.999c-4.999,0-9.998,0-14.998,0c-0.744-2.255-5.607-0.391-7.998-0.999
		c-8.078-9.445-3.145-26.633-16.998-30.997c0.105-25.71,5.066-47.982-4-68.991c-7.215,15.215-18.637,32.558-17.998,51.994
		c0.529,16.109,15.262,23.378,16.998,37.995c-15.35,6.624-45.018-0.594-29.996-17.998c-2.188-5.144-5.568-9.097-8.999-12.998
		c8.46-34.869,15.84-70.816,16.998-112.986c-11.869-9.001-33.294-11.004-49.994-10.998c-32.924,0.012-60.891-14.506-83.99-25.997
		c-10.306,5.856-10.943,19.474-13.998,30.996c-2.939,11.085-8.307,22.145-9.999,33.996c-1.737,12.171,2.811,25.408-3,35.995
		c4.745,17.817,7.247,32.524,13.999,45.994c6.11,12.189,22.889,16.94,22.997,32.996c-7.165,4.897-17.557,1.746-27.997,2
		c-2.286-9.713-5.499-18.498-15.998-19.998c-1.035-18.378-7.715-31.738-11.999-48.994c-5.047-20.334-15.042-34.22-6.999-53.993
		c-11.253,6.399-10.271,24.787-15.998,37.996c-1.611,3.715-5.335,7.498-5.999,10.998c-1.778,9.373,2.879,25.382,3.999,36.995
		c0.366,3.793-0.703,8.239,0,10.999c3.375,13.255,19.623,18.21,17.998,32.996c-13.447-0.219-29.333,2.003-33.996-6.999
		c3.629-10.406,0.657-17.25-5-22.997c-1.327-25.284,1.954-45.506,0-64.992c-0.651-6.493-5.032-13.367-5-19.997
		c0.081-16.557,21.131-31.688,17.998-50.994c-1.02-6.283-5.306-10.922-6.999-18.998c-8.356,7.239-11.837,17.901-15.998,28.997
		c-3.943,10.516-5.939,24.306-10.999,32.996c-3.843,6.6-12.043,8.859-11.999,16.997c-13.762,0.236-10.514,17.483-25.997,15.998
		c-3.251-9.023,2.891-16.612-4-21.997c0-0.333,0-0.666,0-1c5.022-7.31,9.735-14.929,13.998-22.997c-2.657-0.562-5.091,4.113-6.999,1
		c4.294-18.036,15.461-29.199,21.998-44.994c0.818-4.484-7.547,0.214-7-4c15.396-20.347,11.366-53.296,23.997-74.99
		c6.4-10.992,20.683-18.702,30.996-23.997c12.706-6.523,27.489-11.898,41.995-12.999c26.564-2.015,52.354,8.768,77.99,13.999
		c17.047,3.478,40.764,4.799,55.993,0c9.127-2.877,16.423-13.936,26.996-15.998c4.994-10.671,13.096-18.234,24.997-21.997
		c0.119-2.88-0.546-6.546,1-7.999c8.147-3.517,15.456-7.874,20.997-13.999c10.751-2.914,20.427-6.903,26.996-13.998
		c3.649-0.888,5.326,1.766,7,0c9.582-15.07,36.42-14.861,50.993-25.997C573.697,105.076,574.097,93.85,583.946,93z"/>
	<g>
	</g>
</g>
</svg>
