<?xml version="1.0" encoding="utf-8"?>
<!-- Generator: Adobe Illustrator 15.0.0, SVG Export Plug-In . SVG Version: 6.00 Build 0)  -->
<!DOCTYPE svg PUBLIC "-//W3C//DTD SVG 1.1//EN" "http://www.w3.org/Graphics/SVG/1.1/DTD/svg11.dtd">
<svg version="1.1" id="Layer_1" xmlns="http://www.w3.org/2000/svg" xmlns:xlink="http://www.w3.org/1999/xlink" x="0px" y="0px"
	 width="612px" height="792px" viewBox="0 0 612 792" enable-background="new 0 0 612 792" xml:space="preserve">
<line fill="none" stroke="#000000" stroke-width="5" stroke-linecap="round" stroke-miterlimit="10" x1="2" y1="188.44" x2="105" y2="159.938"/>
<line fill="none" stroke="#000000" stroke-width="5" stroke-linecap="round" stroke-miterlimit="10" x1="105" y1="159.938" x2="98" y2="54"/>
<line fill="none" stroke="#000000" stroke-width="5" stroke-linecap="round" stroke-miterlimit="10" x1="105" y1="159.938" x2="205" y2="105.146"/>
<line fill="none" stroke="#000000" stroke-width="5" stroke-linecap="round" stroke-miterlimit="10" x1="105" y1="159.938" x2="183" y2="217.5"/>
<line fill="none" stroke="#000000" stroke-width="5" stroke-linecap="round" stroke-miterlimit="10" x1="105" y1="159.938" x2="84" y2="271.625"/>
<line fill="none" stroke="#000000" stroke-width="5" stroke-linecap="round" stroke-miterlimit="10" x1="105" y1="385.976" x2="84" y2="271.625"/>
<line fill="none" stroke="#000000" stroke-width="5" stroke-linecap="round" stroke-miterlimit="10" x1="105" y1="385.976" x2="98" y2="495.689"/>
<line fill="none" stroke="#000000" stroke-width="5" stroke-linecap="round" stroke-miterlimit="10" x1="105" y1="385.976" x2="2" y2="352.939"/>
<line fill="none" stroke="#000000" stroke-width="5" stroke-linecap="round" stroke-miterlimit="10" x1="205" y1="440.832" x2="105" y2="385.976"/>
<line fill="none" stroke="#000000" stroke-width="5" stroke-linecap="round" stroke-miterlimit="10" x1="105" y1="385.976" x2="183" y2="328.8"/>
<line fill="none" stroke="#000000" stroke-width="5" stroke-linecap="round" stroke-miterlimit="10" x1="183" y1="328.8" x2="259" y2="271.146"/>
<line fill="none" stroke="#000000" stroke-width="5" stroke-linecap="round" stroke-miterlimit="10" x1="259" y1="271.146" x2="183" y2="217.5"/>
<line fill="none" stroke="#000000" stroke-width="5" stroke-linecap="round" stroke-miterlimit="10" x1="290" y1="180.251" x2="259" y2="271.146"/>
<line fill="none" stroke="#000000" stroke-width="5" stroke-linecap="round" stroke-miterlimit="10" x1="259" y1="271.146" x2="357" y2="271.625"/>
<line fill="none" stroke="#000000" stroke-width="5" stroke-linecap="round" stroke-miterlimit="10" x1="357" y1="271.625" x2="452" y2="271.625"/>
<line fill="none" stroke="#000000" stroke-width="5" stroke-linecap="round" stroke-miterlimit="10" x1="205" y1="105.146" x2="320" y2="89.625"/>
<line fill="none" stroke="#000000" stroke-width="5" stroke-linecap="round" stroke-miterlimit="10" x1="320" y1="89.625" x2="290" y2="180.251"/>
<line fill="none" stroke="#000000" stroke-width="5" stroke-linecap="round" stroke-miterlimit="10" x1="320" y1="89.625" x2="262.5" y2="2"/>
<line fill="none" stroke="#000000" stroke-width="5" stroke-linecap="round" stroke-miterlimit="10" x1="320" y1="89.625" x2="420" y2="54"/>
<line fill="none" stroke="#000000" stroke-width="5" stroke-linecap="round" stroke-miterlimit="10" x1="404.5" y1="166.896" x2="320" y2="89.625"/>
<line fill="none" stroke="#000000" stroke-width="5" stroke-linecap="round" stroke-miterlimit="10" x1="404.5" y1="166.896" x2="452" y2="271.625"/>
<line fill="none" stroke="#000000" stroke-width="5" stroke-linecap="round" stroke-miterlimit="10" x1="452" y1="271.625" x2="515" y2="190.877"/>
<line fill="none" stroke="#000000" stroke-width="5" stroke-linecap="round" stroke-miterlimit="10" x1="452" y1="271.625" x2="515" y2="357.816"/>
<line fill="none" stroke="#000000" stroke-width="5" stroke-linecap="round" stroke-miterlimit="10" x1="452" y1="271.625" x2="404.5" y2="376.189"/>
<line fill="none" stroke="#000000" stroke-width="5" stroke-linecap="round" stroke-miterlimit="10" x1="404.5" y1="376.189" x2="320" y2="455.127"/>
<line fill="none" stroke="#000000" stroke-width="5" stroke-linecap="round" stroke-miterlimit="10" x1="320" y1="455.127" x2="259" y2="543.875"/>
<line fill="none" stroke="#000000" stroke-width="5" stroke-linecap="round" stroke-miterlimit="10" x1="205" y1="440.832" x2="320" y2="455.127"/>
<line fill="none" stroke="#000000" stroke-width="5" stroke-linecap="round" stroke-miterlimit="10" x1="320" y1="455.127" x2="289.5" y2="361.437"/>
<line fill="none" stroke="#000000" stroke-width="5" stroke-linecap="round" stroke-miterlimit="10" x1="289.5" y1="361.437" x2="259" y2="271.146"/>
<line fill="none" stroke="#000000" stroke-width="5" stroke-linecap="round" stroke-miterlimit="10" x1="320" y1="455.127" x2="420" y2="491.838"/>
<line fill="#231F20" stroke="#000000" stroke-width="5" stroke-linecap="round" stroke-miterlimit="10" x1="2" y1="188.44" x2="98" y2="54"/>
<line fill="none" stroke="#000000" stroke-width="5" stroke-linecap="round" stroke-miterlimit="10" x1="98" y1="54" x2="262.5" y2="2"/>
<line fill="none" stroke="#000000" stroke-width="5" stroke-linecap="round" stroke-miterlimit="10" x1="262.5" y1="2" x2="420" y2="54"/>
<line fill="none" stroke="#000000" stroke-width="5" stroke-linecap="round" stroke-miterlimit="10" x1="420" y1="54" x2="515" y2="190.877"/>
<line fill="none" stroke="#000000" stroke-width="5" stroke-linecap="round" stroke-miterlimit="10" x1="515" y1="190.877" x2="515" y2="357.816"/>
<line fill="none" stroke="#000000" stroke-width="5" stroke-linecap="round" stroke-miterlimit="10" x1="515" y1="357.816" x2="420" y2="491.838"/>
<line fill="none" stroke="#000000" stroke-width="5" stroke-linecap="round" stroke-miterlimit="10" x1="420" y1="491.838" x2="259" y2="543.875"/>
<line fill="none" stroke="#000000" stroke-width="5" stroke-linecap="round" stroke-miterlimit="10" x1="259" y1="543.875" x2="98" y2="495.689"/>
<line fill="none" stroke="#000000" stroke-width="5" stroke-linecap="round" stroke-miterlimit="10" x1="98" y1="495.689" x2="2" y2="352.939"/>
<line fill="none" stroke="#000000" stroke-width="5" stroke-linecap="round" stroke-miterlimit="10" x1="2" y1="352.939" x2="2" y2="188.44"/>
<line fill="none" stroke="#000000" stroke-width="5" stroke-linecap="round" stroke-miterlimit="10" x1="2" y1="188.44" x2="84" y2="271.625"/>
<line fill="none" stroke="#000000" stroke-width="5" stroke-linecap="round" stroke-miterlimit="10" x1="84" y1="271.625" x2="2" y2="352.939"/>
<line fill="none" stroke="#000000" stroke-width="5" stroke-linecap="round" stroke-miterlimit="10" x1="84" y1="271.625" x2="183" y2="328.8"/>
<line fill="none" stroke="#000000" stroke-width="5" stroke-linecap="round" stroke-miterlimit="10" x1="183" y1="328.8" x2="289.5" y2="365.939"/>
<line fill="none" stroke="#000000" stroke-width="5" stroke-linecap="round" stroke-miterlimit="10" x1="289.5" y1="365.939" x2="404.5" y2="376.189"/>
<line fill="none" stroke="#000000" stroke-width="5" stroke-linecap="round" stroke-miterlimit="10" x1="404.5" y1="376.189" x2="515" y2="357.816"/>
<line fill="none" stroke="#000000" stroke-width="5" stroke-linecap="round" stroke-miterlimit="10" x1="420" y1="491.838" x2="404.5" y2="376.189"/>
<line fill="none" stroke="#000000" stroke-width="5" stroke-linecap="round" stroke-miterlimit="10" x1="404.5" y1="376.189" x2="357" y2="271.625"/>
<line fill="none" stroke="#000000" stroke-width="5" stroke-linecap="round" stroke-miterlimit="10" x1="357" y1="271.625" x2="290" y2="180.251"/>
<line fill="none" stroke="#000000" stroke-width="5" stroke-linecap="round" stroke-miterlimit="10" x1="290" y1="180.251" x2="205" y2="105.146"/>
<line fill="none" stroke="#000000" stroke-width="5" stroke-linecap="round" stroke-miterlimit="10" x1="205" y1="105.146" x2="98" y2="54"/>
<line fill="none" stroke="#000000" stroke-width="5" stroke-linecap="round" stroke-miterlimit="10" x1="262.5" y1="2" x2="205" y2="105.146"/>
<line fill="none" stroke="#000000" stroke-width="5" stroke-linecap="round" stroke-miterlimit="10" x1="205" y1="105.146" x2="183" y2="217.5"/>
<line fill="none" stroke="#000000" stroke-width="5" stroke-linecap="round" stroke-miterlimit="10" x1="183" y1="217.5" x2="183" y2="328.8"/>
<line fill="none" stroke="#000000" stroke-width="5" stroke-linecap="round" stroke-miterlimit="10" x1="183" y1="328.8" x2="205" y2="440.832"/>
<line fill="none" stroke="#000000" stroke-width="5" stroke-linecap="round" stroke-miterlimit="10" x1="205" y1="440.832" x2="259" y2="543.875"/>
<line fill="none" stroke="#000000" stroke-width="5" stroke-linecap="round" stroke-miterlimit="10" x1="98" y1="495.689" x2="205" y2="440.832"/>
<line fill="none" stroke="#000000" stroke-width="5" stroke-linecap="round" stroke-miterlimit="10" x1="205" y1="440.832" x2="289.5" y2="365.939"/>
<line fill="none" stroke="#000000" stroke-width="5" stroke-linecap="round" stroke-miterlimit="10" x1="289.5" y1="365.939" x2="357" y2="271.625"/>
<line fill="none" stroke="#000000" stroke-width="5" stroke-linecap="round" stroke-miterlimit="10" x1="357" y1="271.625" x2="404.5" y2="166.896"/>
<line fill="none" stroke="#000000" stroke-width="5" stroke-linecap="round" stroke-miterlimit="10" x1="404.5" y1="166.896" x2="420" y2="54"/>
<line fill="none" stroke="#000000" stroke-width="5" stroke-linecap="round" stroke-miterlimit="10" x1="515" y1="190.877" x2="404.5" y2="166.896"/>
<line fill="none" stroke="#000000" stroke-width="5" stroke-linecap="round" stroke-miterlimit="10" x1="404.5" y1="166.896" x2="290" y2="180.251"/>
<line fill="none" stroke="#000000" stroke-width="5" stroke-linecap="round" stroke-miterlimit="10" x1="290" y1="180.251" x2="183" y2="217.5"/>
<line fill="none" stroke="#000000" stroke-width="5" stroke-linecap="round" stroke-miterlimit="10" x1="183" y1="217.5" x2="84" y2="271.625"/>
</svg>
