<?xml version="1.0" encoding="utf-8"?>
<!-- Generator: Adobe Illustrator 15.0.0, SVG Export Plug-In . SVG Version: 6.00 Build 0)  -->
<!DOCTYPE svg PUBLIC "-//W3C//DTD SVG 1.1//EN" "http://www.w3.org/Graphics/SVG/1.1/DTD/svg11.dtd">
<svg version="1.1" id="Layer_1" xmlns="http://www.w3.org/2000/svg" xmlns:xlink="http://www.w3.org/1999/xlink" x="0px" y="0px"
	 width="612px" height="792px" viewBox="0 0 612 792" enable-background="new 0 0 612 792" xml:space="preserve">
<g>
	
		<line fill="none" stroke="#000000" stroke-width="5" stroke-linecap="round" stroke-miterlimit="10" x1="469.501" y1="273.583" x2="501.501" y2="240.25"/>
	
		<line fill="none" stroke="#000000" stroke-width="5" stroke-linecap="round" stroke-miterlimit="10" x1="451.168" y1="223.083" x2="469.501" y2="273.583"/>
	
		<line fill="none" stroke="#000000" stroke-width="5" stroke-linecap="round" stroke-miterlimit="10" x1="469.501" y1="273.583" x2="425.835" y2="273.583"/>
	
		<line fill="none" stroke="#000000" stroke-width="5" stroke-linecap="round" stroke-miterlimit="10" x1="451.168" y1="323.083" x2="469.501" y2="273.583"/>
	
		<line fill="none" stroke="#000000" stroke-width="5" stroke-linecap="round" stroke-miterlimit="10" x1="469.501" y1="273.583" x2="502.835" y2="308.583"/>
	
		<line fill="none" stroke="#000000" stroke-width="5" stroke-linecap="round" stroke-miterlimit="10" x1="336.834" y1="90.583" x2="378.501" y2="122.917"/>
	
		<line fill="none" stroke="#000000" stroke-width="5" stroke-linecap="round" stroke-miterlimit="10" x1="336.834" y1="90.583" x2="323.834" y2="131.583"/>
	
		<line fill="none" stroke="#000000" stroke-width="5" stroke-linecap="round" stroke-miterlimit="10" x1="283.168" y1="93.583" x2="336.834" y2="90.583"/>
	
		<line fill="none" stroke="#000000" stroke-width="5" stroke-linecap="round" stroke-miterlimit="10" x1="336.834" y1="90.583" x2="378.501" y2="69.917"/>
	
		<line fill="none" stroke="#000000" stroke-width="5" stroke-linecap="round" stroke-miterlimit="10" x1="336.834" y1="90.583" x2="314.168" y2="48.917"/>
	
		<line fill="none" stroke="#000000" stroke-width="5" stroke-linecap="round" stroke-miterlimit="10" x1="120.501" y1="160.583" x2="156.834" y2="186.25"/>
	
		<line fill="none" stroke="#000000" stroke-width="5" stroke-linecap="round" stroke-miterlimit="10" x1="120.501" y1="160.583" x2="106.834" y2="210.583"/>
	
		<line fill="none" stroke="#000000" stroke-width="5" stroke-linecap="round" stroke-miterlimit="10" x1="120.501" y1="160.583" x2="75.167" y2="167.917"/>
	
		<line fill="none" stroke="#000000" stroke-width="5" stroke-linecap="round" stroke-miterlimit="10" x1="120.501" y1="160.583" x2="115.834" y2="112.083"/>
	
		<line fill="none" stroke="#000000" stroke-width="5" stroke-linecap="round" stroke-miterlimit="10" x1="120.501" y1="160.583" x2="165.167" y2="131.583"/>
	
		<line fill="none" stroke="#000000" stroke-width="5" stroke-linecap="round" stroke-miterlimit="10" x1="277.167" y1="273.083" x2="291.501" y2="314.25"/>
	
		<line fill="none" stroke="#000000" stroke-width="5" stroke-linecap="round" stroke-miterlimit="10" x1="277.167" y1="273.083" x2="243.167" y2="248.333"/>
	
		<line fill="none" stroke="#000000" stroke-width="5" stroke-linecap="round" stroke-miterlimit="10" x1="277.167" y1="273.083" x2="291.501" y2="232.917"/>
	
		<line fill="none" stroke="#000000" stroke-width="5" stroke-linecap="round" stroke-miterlimit="10" x1="277.167" y1="273.083" x2="320.167" y2="273.583"/>
	
		<line fill="none" stroke="#000000" stroke-width="5" stroke-linecap="round" stroke-miterlimit="10" x1="277.167" y1="273.083" x2="243.167" y2="298.333"/>
	
		<line fill="none" stroke="#000000" stroke-width="5" stroke-linecap="round" stroke-miterlimit="10" x1="121.167" y1="385.083" x2="158.167" y2="359.917"/>
	
		<line fill="none" stroke="#000000" stroke-width="5" stroke-linecap="round" stroke-miterlimit="10" x1="121.167" y1="385.083" x2="115.834" y2="433.916"/>
	
		<line fill="none" stroke="#000000" stroke-width="5" stroke-linecap="round" stroke-miterlimit="10" x1="121.167" y1="385.083" x2="165.501" y2="414.916"/>
	
		<line fill="none" stroke="#000000" stroke-width="5" stroke-linecap="round" stroke-miterlimit="10" x1="121.167" y1="385.083" x2="106.834" y2="335.583"/>
	
		<line fill="none" stroke="#000000" stroke-width="5" stroke-linecap="round" stroke-miterlimit="10" x1="121.167" y1="385.083" x2="73.834" y2="377.583"/>
	
		<line fill="none" stroke="#000000" stroke-width="5" stroke-linecap="round" stroke-miterlimit="10" x1="336.501" y1="455.25" x2="314.501" y2="498.25"/>
	
		<line fill="none" stroke="#000000" stroke-width="5" stroke-linecap="round" stroke-miterlimit="10" x1="336.501" y1="455.25" x2="323.168" y2="414.916"/>
	
		<line fill="none" stroke="#000000" stroke-width="5" stroke-linecap="round" stroke-miterlimit="10" x1="336.501" y1="455.25" x2="284.334" y2="455.25"/>
	
		<line fill="none" stroke="#000000" stroke-width="5" stroke-linecap="round" stroke-miterlimit="10" x1="336.501" y1="455.25" x2="378.168" y2="423.584"/>
	
		<line fill="none" stroke="#000000" stroke-width="5" stroke-linecap="round" stroke-miterlimit="10" x1="334.834" y1="455.25" x2="379.834" y2="476.75"/>
	
		<line fill="none" stroke="#000000" stroke-width="5" stroke-linecap="round" stroke-miterlimit="10" x1="320.167" y1="273.583" x2="342.667" y2="225.583"/>
	
		<line fill="none" stroke="#000000" stroke-width="5" stroke-linecap="round" stroke-miterlimit="10" x1="342.667" y1="225.583" x2="291.501" y2="232.917"/>
	
		<line fill="none" stroke="#000000" stroke-width="5" stroke-linecap="round" stroke-miterlimit="10" x1="320.167" y1="273.583" x2="342.667" y2="320.583"/>
	
		<line fill="none" stroke="#000000" stroke-width="5" stroke-linecap="round" stroke-miterlimit="10" x1="342.667" y1="320.583" x2="291.501" y2="314.25"/>
	
		<line fill="none" stroke="#000000" stroke-width="5" stroke-linecap="round" stroke-miterlimit="10" x1="291.501" y1="314.25" x2="252.667" y2="349.083"/>
	
		<line fill="none" stroke="#000000" stroke-width="5" stroke-linecap="round" stroke-miterlimit="10" x1="252.667" y1="349.083" x2="243.167" y2="298.333"/>
	
		<line fill="none" stroke="#000000" stroke-width="5" stroke-linecap="round" stroke-miterlimit="10" x1="243.167" y1="298.333" x2="198.667" y2="273.083"/>
	
		<line fill="none" stroke="#000000" stroke-width="5" stroke-linecap="round" stroke-miterlimit="10" x1="198.667" y1="273.083" x2="243.167" y2="248.333"/>
	
		<line fill="none" stroke="#000000" stroke-width="5" stroke-linecap="round" stroke-miterlimit="10" x1="243.167" y1="248.333" x2="252.667" y2="197.583"/>
	
		<line fill="none" stroke="#000000" stroke-width="5" stroke-linecap="round" stroke-miterlimit="10" x1="252.667" y1="197.583" x2="291.501" y2="232.917"/>
	
		<line fill="none" stroke="#000000" stroke-width="5" stroke-linecap="round" stroke-miterlimit="10" x1="156.834" y1="186.25" x2="148.167" y2="241.583"/>
	
		<line fill="none" stroke="#000000" stroke-width="5" stroke-linecap="round" stroke-miterlimit="10" x1="148.167" y1="244.833" x2="106.834" y2="210.583"/>
	
		<line fill="none" stroke="#000000" stroke-width="5" stroke-linecap="round" stroke-miterlimit="10" x1="106.834" y1="210.583" x2="57.167" y2="235.083"/>
	
		<line fill="none" stroke="#000000" stroke-width="5" stroke-linecap="round" stroke-miterlimit="10" x1="57.167" y1="235.083" x2="75.167" y2="167.917"/>
	
		<line fill="none" stroke="#000000" stroke-width="5" stroke-linecap="round" stroke-miterlimit="10" x1="75.167" y1="167.917" x2="57.167" y2="112.583"/>
	
		<line fill="none" stroke="#000000" stroke-width="5" stroke-linecap="round" stroke-miterlimit="10" x1="57.167" y1="112.583" x2="115.834" y2="112.083"/>
	
		<line fill="none" stroke="#000000" stroke-width="5" stroke-linecap="round" stroke-miterlimit="10" x1="115.834" y1="112.083" x2="173.417" y2="75.083"/>
	
		<line fill="none" stroke="#000000" stroke-width="5" stroke-linecap="round" stroke-miterlimit="10" x1="173.417" y1="75.083" x2="165.167" y2="131.583"/>
	
		<line fill="none" stroke="#000000" stroke-width="5" stroke-linecap="round" stroke-miterlimit="10" x1="165.167" y1="131.583" x2="206.667" y2="160.583"/>
	
		<line fill="none" stroke="#000000" stroke-width="5" stroke-linecap="round" stroke-miterlimit="10" x1="206.667" y1="160.583" x2="156.834" y2="186.25"/>
	
		<line fill="none" stroke="#000000" stroke-width="5" stroke-linecap="round" stroke-miterlimit="10" x1="283.168" y1="93.583" x2="267.167" y2="141.583"/>
	
		<line fill="none" stroke="#000000" stroke-width="5" stroke-linecap="round" stroke-miterlimit="10" x1="267.167" y1="141.583" x2="323.834" y2="131.583"/>
	
		<line fill="none" stroke="#000000" stroke-width="5" stroke-linecap="round" stroke-miterlimit="10" x1="323.834" y1="131.583" x2="362.667" y2="174.583"/>
	
		<line fill="none" stroke="#000000" stroke-width="5" stroke-linecap="round" stroke-miterlimit="10" x1="362.667" y1="174.583" x2="378.501" y2="127.25"/>
	
		<line fill="none" stroke="#000000" stroke-width="5" stroke-linecap="round" stroke-miterlimit="10" x1="378.501" y1="127.25" x2="434.167" y2="112.083"/>
	
		<line fill="none" stroke="#000000" stroke-width="5" stroke-linecap="round" stroke-miterlimit="10" x1="434.167" y1="112.083" x2="378.501" y2="69.917"/>
	
		<line fill="none" stroke="#000000" stroke-width="5" stroke-linecap="round" stroke-miterlimit="10" x1="378.501" y1="69.917" x2="362.667" y2="13.917"/>
	
		<line fill="none" stroke="#000000" stroke-width="5" stroke-linecap="round" stroke-miterlimit="10" x1="362.667" y1="13.917" x2="314.168" y2="48.917"/>
	
		<line fill="none" stroke="#000000" stroke-width="5" stroke-linecap="round" stroke-miterlimit="10" x1="314.168" y1="48.917" x2="246.167" y2="52.083"/>
	
		<line fill="none" stroke="#000000" stroke-width="5" stroke-linecap="round" stroke-miterlimit="10" x1="246.167" y1="52.083" x2="283.168" y2="93.583"/>
	
		<line fill="none" stroke="#000000" stroke-width="5" stroke-linecap="round" stroke-miterlimit="10" x1="451.168" y1="223.083" x2="479.167" y2="174.583"/>
	
		<line fill="none" stroke="#000000" stroke-width="5" stroke-linecap="round" stroke-miterlimit="10" x1="479.167" y1="174.583" x2="501.501" y2="240.25"/>
	
		<line fill="none" stroke="#000000" stroke-width="5" stroke-linecap="round" stroke-miterlimit="10" x1="501.501" y1="240.25" x2="548.834" y2="273.333"/>
	
		<line fill="none" stroke="#000000" stroke-width="5" stroke-linecap="round" stroke-miterlimit="10" x1="548.834" y1="273.333" x2="502.835" y2="308.583"/>
	
		<line fill="none" stroke="#000000" stroke-width="5" stroke-linecap="round" stroke-miterlimit="10" x1="502.835" y1="308.583" x2="479.167" y2="372.917"/>
	
		<line fill="none" stroke="#000000" stroke-width="5" stroke-linecap="round" stroke-miterlimit="10" x1="479.167" y1="372.917" x2="451.168" y2="323.083"/>
	
		<line fill="none" stroke="#000000" stroke-width="5" stroke-linecap="round" stroke-miterlimit="10" x1="451.168" y1="323.083" x2="400.167" y2="323.083"/>
	
		<line fill="none" stroke="#000000" stroke-width="5" stroke-linecap="round" stroke-miterlimit="10" x1="400.167" y1="323.083" x2="425.835" y2="273.583"/>
	
		<line fill="none" stroke="#000000" stroke-width="5" stroke-linecap="round" stroke-miterlimit="10" x1="425.835" y1="273.583" x2="400.167" y2="225.583"/>
	
		<line fill="none" stroke="#000000" stroke-width="5" stroke-linecap="round" stroke-miterlimit="10" x1="400.167" y1="225.583" x2="451.168" y2="223.083"/>
	
		<line fill="none" stroke="#000000" stroke-width="5" stroke-linecap="round" stroke-miterlimit="10" x1="378.168" y1="423.584" x2="434.167" y2="434.084"/>
	
		<line fill="none" stroke="#000000" stroke-width="5" stroke-linecap="round" stroke-miterlimit="10" x1="434.167" y1="434.084" x2="379.834" y2="476.75"/>
	
		<line fill="none" stroke="#000000" stroke-width="5" stroke-linecap="round" stroke-miterlimit="10" x1="379.834" y1="476.75" x2="362.667" y2="531.584"/>
	
		<line fill="none" stroke="#000000" stroke-width="5" stroke-linecap="round" stroke-miterlimit="10" x1="362.667" y1="531.584" x2="314.501" y2="498.25"/>
	
		<line fill="none" stroke="#000000" stroke-width="5" stroke-linecap="round" stroke-miterlimit="10" x1="314.501" y1="498.25" x2="245.167" y2="494.084"/>
	
		<line fill="none" stroke="#000000" stroke-width="5" stroke-linecap="round" stroke-miterlimit="10" x1="245.167" y1="494.084" x2="284.334" y2="452.584"/>
	
		<line fill="none" stroke="#000000" stroke-width="5" stroke-linecap="round" stroke-miterlimit="10" x1="284.334" y1="452.584" x2="267.167" y2="406.084"/>
	
		<line fill="none" stroke="#000000" stroke-width="5" stroke-linecap="round" stroke-miterlimit="10" x1="267.167" y1="406.084" x2="323.168" y2="414.916"/>
	
		<line fill="none" stroke="#000000" stroke-width="5" stroke-linecap="round" stroke-miterlimit="10" x1="323.168" y1="414.916" x2="362.667" y2="375.083"/>
	
		<line fill="none" stroke="#000000" stroke-width="5" stroke-linecap="round" stroke-miterlimit="10" x1="362.667" y1="375.083" x2="378.168" y2="423.584"/>
	
		<line fill="none" stroke="#000000" stroke-width="5" stroke-linecap="round" stroke-miterlimit="10" x1="173.417" y1="471.584" x2="165.501" y2="414.916"/>
	
		<line fill="none" stroke="#000000" stroke-width="5" stroke-linecap="round" stroke-miterlimit="10" x1="165.501" y1="414.916" x2="206.667" y2="387.417"/>
	
		<line fill="none" stroke="#000000" stroke-width="5" stroke-linecap="round" stroke-miterlimit="10" x1="206.667" y1="387.417" x2="158.167" y2="359.917"/>
	
		<line fill="none" stroke="#000000" stroke-width="5" stroke-linecap="round" stroke-miterlimit="10" x1="158.167" y1="359.917" x2="148.167" y2="304.583"/>
	
		<line fill="none" stroke="#000000" stroke-width="5" stroke-linecap="round" stroke-miterlimit="10" x1="148.167" y1="304.583" x2="106.834" y2="335.583"/>
	
		<line fill="none" stroke="#000000" stroke-width="5" stroke-linecap="round" stroke-miterlimit="10" x1="106.834" y1="335.583" x2="57.167" y2="311.083"/>
	
		<line fill="none" stroke="#000000" stroke-width="5" stroke-linecap="round" stroke-miterlimit="10" x1="57.167" y1="311.083" x2="73.834" y2="377.583"/>
	
		<line fill="none" stroke="#000000" stroke-width="5" stroke-linecap="round" stroke-miterlimit="10" x1="73.834" y1="377.583" x2="57.167" y2="433.916"/>
	
		<line fill="none" stroke="#000000" stroke-width="5" stroke-linecap="round" stroke-miterlimit="10" x1="57.167" y1="433.916" x2="115.834" y2="433.916"/>
	
		<line fill="none" stroke="#000000" stroke-width="5" stroke-linecap="round" stroke-miterlimit="10" x1="115.834" y1="433.916" x2="173.417" y2="471.584"/>
	
		<line fill="none" stroke="#000000" stroke-width="5" stroke-linecap="round" stroke-miterlimit="10" x1="501.501" y1="240.25" x2="502.835" y2="308.583"/>
	
		<line fill="none" stroke="#000000" stroke-width="5" stroke-linecap="round" stroke-miterlimit="10" x1="425.835" y1="273.583" x2="451.168" y2="323.083"/>
	
		<line fill="none" stroke="#000000" stroke-width="5" stroke-linecap="round" stroke-miterlimit="10" x1="451.168" y1="323.083" x2="502.835" y2="308.583"/>
	
		<line fill="none" stroke="#000000" stroke-width="5" stroke-linecap="round" stroke-miterlimit="10" x1="425.835" y1="271.083" x2="451.168" y2="223.083"/>
	
		<line fill="none" stroke="#000000" stroke-width="5" stroke-linecap="round" stroke-miterlimit="10" x1="451.168" y1="223.083" x2="501.501" y2="240.25"/>
	
		<line fill="none" stroke="#000000" stroke-width="5" stroke-linecap="round" stroke-miterlimit="10" x1="320.167" y1="273.583" x2="291.501" y2="232.917"/>
	
		<line fill="none" stroke="#000000" stroke-width="5" stroke-linecap="round" stroke-miterlimit="10" x1="291.501" y1="232.917" x2="243.167" y2="248.333"/>
	
		<line fill="none" stroke="#000000" stroke-width="5" stroke-linecap="round" stroke-miterlimit="10" x1="243.167" y1="248.333" x2="243.167" y2="298.333"/>
	
		<line fill="none" stroke="#000000" stroke-width="5" stroke-linecap="round" stroke-miterlimit="10" x1="243.167" y1="298.333" x2="291.501" y2="314.25"/>
	
		<line fill="none" stroke="#000000" stroke-width="5" stroke-linecap="round" stroke-miterlimit="10" x1="291.501" y1="314.25" x2="320.167" y2="273.583"/>
	
		<line fill="none" stroke="#000000" stroke-width="5" stroke-linecap="round" stroke-miterlimit="10" x1="106.834" y1="210.583" x2="156.834" y2="186.25"/>
	
		<line fill="none" stroke="#000000" stroke-width="5" stroke-linecap="round" stroke-miterlimit="10" x1="156.834" y1="186.25" x2="165.167" y2="131.583"/>
	
		<line fill="none" stroke="#000000" stroke-width="5" stroke-linecap="round" stroke-miterlimit="10" x1="165.167" y1="131.583" x2="115.834" y2="112.083"/>
	
		<line fill="none" stroke="#000000" stroke-width="5" stroke-linecap="round" stroke-miterlimit="10" x1="115.834" y1="112.083" x2="75.167" y2="167.917"/>
	
		<line fill="none" stroke="#000000" stroke-width="5" stroke-linecap="round" stroke-miterlimit="10" x1="75.167" y1="167.917" x2="106.834" y2="210.583"/>
	
		<line fill="none" stroke="#000000" stroke-width="5" stroke-linecap="round" stroke-miterlimit="10" x1="106.834" y1="335.583" x2="158.167" y2="359.917"/>
	
		<line fill="none" stroke="#000000" stroke-width="5" stroke-linecap="round" stroke-miterlimit="10" x1="158.167" y1="359.917" x2="165.501" y2="414.916"/>
	
		<line fill="none" stroke="#000000" stroke-width="5" stroke-linecap="round" stroke-miterlimit="10" x1="165.501" y1="414.916" x2="115.834" y2="433.916"/>
	
		<line fill="none" stroke="#000000" stroke-width="5" stroke-linecap="round" stroke-miterlimit="10" x1="115.834" y1="433.916" x2="73.834" y2="377.583"/>
	
		<line fill="none" stroke="#000000" stroke-width="5" stroke-linecap="round" stroke-miterlimit="10" x1="73.834" y1="377.583" x2="106.834" y2="335.583"/>
	
		<line fill="none" stroke="#000000" stroke-width="5" stroke-linecap="round" stroke-miterlimit="10" x1="284.334" y1="455.25" x2="323.168" y2="414.916"/>
	
		<line fill="none" stroke="#000000" stroke-width="5" stroke-linecap="round" stroke-miterlimit="10" x1="323.168" y1="414.916" x2="378.168" y2="423.584"/>
	
		<line fill="none" stroke="#000000" stroke-width="5" stroke-linecap="round" stroke-miterlimit="10" x1="378.168" y1="423.584" x2="379.834" y2="476.75"/>
	
		<line fill="none" stroke="#000000" stroke-width="5" stroke-linecap="round" stroke-miterlimit="10" x1="379.834" y1="476.75" x2="314.501" y2="498.25"/>
	
		<line fill="none" stroke="#000000" stroke-width="5" stroke-linecap="round" stroke-miterlimit="10" x1="314.501" y1="498.25" x2="284.334" y2="455.25"/>
	
		<line fill="none" stroke="#000000" stroke-width="5" stroke-linecap="round" stroke-miterlimit="10" x1="323.834" y1="131.583" x2="378.501" y2="122.917"/>
	
		<line fill="none" stroke="#000000" stroke-width="5" stroke-linecap="round" stroke-miterlimit="10" x1="378.501" y1="122.917" x2="378.501" y2="69.917"/>
	
		<line fill="none" stroke="#000000" stroke-width="5" stroke-linecap="round" stroke-miterlimit="10" x1="378.501" y1="69.917" x2="314.168" y2="48.917"/>
	
		<line fill="none" stroke="#000000" stroke-width="5" stroke-linecap="round" stroke-miterlimit="10" x1="314.168" y1="48.917" x2="283.168" y2="93.583"/>
	
		<line fill="none" stroke="#000000" stroke-width="5" stroke-linecap="round" stroke-miterlimit="10" x1="283.168" y1="93.583" x2="323.834" y2="131.583"/>
	
		<line fill="none" stroke="#000000" stroke-width="5" stroke-linecap="round" stroke-miterlimit="10" x1="161.001" y1="359.917" x2="198.667" y2="328.917"/>
	
		<line fill="none" stroke="#000000" stroke-width="5" stroke-linecap="round" stroke-miterlimit="10" x1="198.667" y1="328.917" x2="243.167" y2="298.333"/>
	
		<line fill="none" stroke="#000000" stroke-width="5" stroke-linecap="round" stroke-miterlimit="10" x1="106.834" y1="335.583" x2="101.167" y2="271.083"/>
	
		<line fill="none" stroke="#000000" stroke-width="5" stroke-linecap="round" stroke-miterlimit="10" x1="101.167" y1="271.083" x2="106.834" y2="210.583"/>
	
		<line fill="none" stroke="#000000" stroke-width="5" stroke-linecap="round" stroke-miterlimit="10" x1="156.834" y1="186.25" x2="198.667" y2="216.583"/>
	
		<line fill="none" stroke="#000000" stroke-width="5" stroke-linecap="round" stroke-miterlimit="10" x1="198.667" y1="216.583" x2="243.167" y2="248.333"/>
	
		<line fill="none" stroke="#000000" stroke-width="5" stroke-linecap="round" stroke-miterlimit="10" x1="291.501" y1="232.917" x2="305.834" y2="182.083"/>
	
		<line fill="none" stroke="#000000" stroke-width="5" stroke-linecap="round" stroke-miterlimit="10" x1="305.834" y1="182.083" x2="323.834" y2="131.583"/>
	
		<line fill="none" stroke="#000000" stroke-width="5" stroke-linecap="round" stroke-miterlimit="10" x1="320.167" y1="273.583" x2="371.417" y2="273.083"/>
	
		<line fill="none" stroke="#000000" stroke-width="5" stroke-linecap="round" stroke-miterlimit="10" x1="371.417" y1="273.083" x2="425.835" y2="273.583"/>
	
		<line fill="none" stroke="#000000" stroke-width="5" stroke-linecap="round" stroke-miterlimit="10" x1="451.168" y1="223.083" x2="420.167" y2="169.583"/>
	
		<line fill="none" stroke="#000000" stroke-width="5" stroke-linecap="round" stroke-miterlimit="10" x1="420.167" y1="169.583" x2="378.501" y2="122.917"/>
	
		<line fill="none" stroke="#000000" stroke-width="5" stroke-linecap="round" stroke-miterlimit="10" x1="501.501" y1="240.25" x2="536.167" y2="189.25"/>
	
		<line fill="none" stroke="#000000" stroke-width="5" stroke-linecap="round" stroke-miterlimit="10" x1="502.835" y1="308.583" x2="536.167" y2="357.189"/>
	
		<line fill="none" stroke="#000000" stroke-width="5" stroke-linecap="round" stroke-miterlimit="10" x1="451.168" y1="323.083" x2="420.167" y2="377.583"/>
	
		<line fill="none" stroke="#000000" stroke-width="5" stroke-linecap="round" stroke-miterlimit="10" x1="420.167" y1="377.583" x2="378.168" y2="423.584"/>
	
		<line fill="none" stroke="#000000" stroke-width="5" stroke-linecap="round" stroke-miterlimit="10" x1="379.834" y1="476.75" x2="438.501" y2="494.084"/>
	
		<line fill="none" stroke="#000000" stroke-width="5" stroke-linecap="round" stroke-miterlimit="10" x1="314.501" y1="498.25" x2="277.167" y2="546.084"/>
	
		<line fill="none" stroke="#000000" stroke-width="5" stroke-linecap="round" stroke-miterlimit="10" x1="284.334" y1="455.25" x2="223.667" y2="439.418"/>
	
		<line fill="none" stroke="#000000" stroke-width="5" stroke-linecap="round" stroke-miterlimit="10" x1="223.667" y1="439.418" x2="165.501" y2="414.916"/>
	
		<line fill="none" stroke="#000000" stroke-width="5" stroke-linecap="round" stroke-miterlimit="10" x1="115.834" y1="433.916" x2="115.834" y2="494.084"/>
	
		<line fill="none" stroke="#000000" stroke-width="5" stroke-linecap="round" stroke-miterlimit="10" x1="73.834" y1="377.583" x2="18.667" y2="356.583"/>
	
		<line fill="none" stroke="#000000" stroke-width="5" stroke-linecap="round" stroke-miterlimit="10" x1="18.667" y1="189.25" x2="75.167" y2="167.917"/>
	
		<line fill="none" stroke="#000000" stroke-width="5" stroke-linecap="round" stroke-miterlimit="10" x1="115.834" y1="112.083" x2="115.834" y2="52.083"/>
	
		<line fill="none" stroke="#000000" stroke-width="5" stroke-linecap="round" stroke-miterlimit="10" x1="167.667" y1="131.583" x2="223.167" y2="106.75"/>
	
		<line fill="none" stroke="#000000" stroke-width="5" stroke-linecap="round" stroke-miterlimit="10" x1="223.167" y1="106.75" x2="283.168" y2="93.583"/>
	
		<line fill="none" stroke="#000000" stroke-width="5" stroke-linecap="round" stroke-miterlimit="10" x1="378.501" y1="69.917" x2="438.501" y2="52.083"/>
	
		<line fill="none" stroke="#000000" stroke-width="5" stroke-linecap="round" stroke-miterlimit="10" x1="314.168" y1="48.917" x2="277.167" y2="2.083"/>
	
		<line fill="none" stroke="#000000" stroke-width="5" stroke-linecap="round" stroke-miterlimit="10" x1="291.501" y1="314.25" x2="310.001" y2="367.083"/>
	
		<line fill="none" stroke="#000000" stroke-width="5" stroke-linecap="round" stroke-miterlimit="10" x1="310.001" y1="367.083" x2="323.168" y2="414.916"/>
	
		<line fill="none" stroke="#000000" stroke-width="5" stroke-linecap="round" stroke-miterlimit="10" x1="101.167" y1="274.417" x2="148.167" y2="304.583"/>
	
		<line fill="none" stroke="#000000" stroke-width="5" stroke-linecap="round" stroke-miterlimit="10" x1="148.167" y1="304.583" x2="198.667" y2="328.917"/>
	
		<line fill="none" stroke="#000000" stroke-width="5" stroke-linecap="round" stroke-miterlimit="10" x1="198.667" y1="328.917" x2="252.667" y2="349.083"/>
	
		<line fill="none" stroke="#000000" stroke-width="5" stroke-linecap="round" stroke-miterlimit="10" x1="252.667" y1="349.083" x2="309.374" y2="365.294"/>
	
		<line fill="none" stroke="#000000" stroke-width="5" stroke-linecap="round" stroke-miterlimit="10" x1="309.374" y1="365.294" x2="362.667" y2="375.083"/>
	
		<line fill="none" stroke="#000000" stroke-width="5" stroke-linecap="round" stroke-miterlimit="10" x1="362.667" y1="375.083" x2="420.167" y2="377.583"/>
	
		<line fill="none" stroke="#000000" stroke-width="5" stroke-linecap="round" stroke-miterlimit="10" x1="420.167" y1="377.583" x2="479.167" y2="372.917"/>
	
		<line fill="none" stroke="#000000" stroke-width="5" stroke-linecap="round" stroke-miterlimit="10" x1="479.167" y1="372.917" x2="536.167" y2="357.189"/>
	
		<line fill="none" stroke="#000000" stroke-width="5" stroke-linecap="round" stroke-miterlimit="10" x1="101.167" y1="274.417" x2="57.167" y2="235.083"/>
	
		<line fill="none" stroke="#000000" stroke-width="5" stroke-linecap="round" stroke-miterlimit="10" x1="57.167" y1="235.083" x2="18.667" y2="189.25"/>
	
		<line fill="none" stroke="#000000" stroke-width="5" stroke-linecap="round" stroke-miterlimit="10" x1="18.667" y1="189.25" x2="5.167" y2="273.083"/>
	
		<line fill="none" stroke="#000000" stroke-width="5" stroke-linecap="round" stroke-miterlimit="10" x1="5.167" y1="273.083" x2="18.667" y2="356.583"/>
	
		<line fill="none" stroke="#000000" stroke-width="5" stroke-linecap="round" stroke-miterlimit="10" x1="18.667" y1="356.583" x2="57.167" y2="433.916"/>
	
		<line fill="none" stroke="#000000" stroke-width="5" stroke-linecap="round" stroke-miterlimit="10" x1="57.167" y1="433.916" x2="115.834" y2="494.084"/>
	
		<line fill="none" stroke="#000000" stroke-width="5" stroke-linecap="round" stroke-miterlimit="10" x1="115.834" y1="494.084" x2="192.167" y2="533.584"/>
	
		<line fill="none" stroke="#000000" stroke-width="5" stroke-linecap="round" stroke-miterlimit="10" x1="192.167" y1="533.584" x2="277.167" y2="546.084"/>
	
		<line fill="none" stroke="#000000" stroke-width="5" stroke-linecap="round" stroke-miterlimit="10" x1="277.167" y1="546.084" x2="362.667" y2="531.584"/>
	
		<line fill="none" stroke="#000000" stroke-width="5" stroke-linecap="round" stroke-miterlimit="10" x1="362.667" y1="531.584" x2="438.501" y2="494.084"/>
	
		<line fill="none" stroke="#000000" stroke-width="5" stroke-linecap="round" stroke-miterlimit="10" x1="438.501" y1="494.084" x2="497.167" y2="434.084"/>
	
		<line fill="none" stroke="#000000" stroke-width="5" stroke-linecap="round" stroke-miterlimit="10" x1="497.167" y1="434.084" x2="536.167" y2="357.189"/>
	
		<line fill="none" stroke="#000000" stroke-width="5" stroke-linecap="round" stroke-miterlimit="10" x1="536.167" y1="357.189" x2="548.834" y2="273.333"/>
	
		<line fill="none" stroke="#000000" stroke-width="5" stroke-linecap="round" stroke-miterlimit="10" x1="548.834" y1="273.333" x2="536.167" y2="189.25"/>
	
		<line fill="none" stroke="#000000" stroke-width="5" stroke-linecap="round" stroke-miterlimit="10" x1="536.167" y1="189.25" x2="497.167" y2="112.083"/>
	
		<line fill="none" stroke="#000000" stroke-width="5" stroke-linecap="round" stroke-miterlimit="10" x1="497.167" y1="112.083" x2="438.501" y2="52.083"/>
	
		<line fill="none" stroke="#000000" stroke-width="5" stroke-linecap="round" stroke-miterlimit="10" x1="438.501" y1="52.083" x2="362.667" y2="13.917"/>
	
		<line fill="none" stroke="#000000" stroke-width="5" stroke-linecap="round" stroke-miterlimit="10" x1="362.667" y1="13.917" x2="277.167" y2="2.083"/>
	
		<line fill="none" stroke="#000000" stroke-width="5" stroke-linecap="round" stroke-miterlimit="10" x1="277.167" y1="2.083" x2="193.167" y2="16.583"/>
	
		<line fill="none" stroke="#000000" stroke-width="5" stroke-linecap="round" stroke-miterlimit="10" x1="193.167" y1="16.583" x2="115.834" y2="52.083"/>
	
		<line fill="none" stroke="#000000" stroke-width="5" stroke-linecap="round" stroke-miterlimit="10" x1="115.834" y1="52.083" x2="57.167" y2="112.583"/>
	
		<line fill="none" stroke="#000000" stroke-width="5" stroke-linecap="round" stroke-miterlimit="10" x1="57.167" y1="112.583" x2="18.667" y2="189.25"/>
	
		<line fill="none" stroke="#000000" stroke-width="5" stroke-linecap="round" stroke-miterlimit="10" x1="18.667" y1="356.583" x2="57.167" y2="311.083"/>
	
		<line fill="none" stroke="#000000" stroke-width="5" stroke-linecap="round" stroke-miterlimit="10" x1="57.167" y1="311.083" x2="101.343" y2="273.083"/>
	
		<line fill="none" stroke="#000000" stroke-width="5" stroke-linecap="round" stroke-miterlimit="10" x1="101.343" y1="273.083" x2="148.167" y2="241.583"/>
	
		<line fill="none" stroke="#000000" stroke-width="5" stroke-linecap="round" stroke-miterlimit="10" x1="148.167" y1="241.583" x2="198.667" y2="216.583"/>
	
		<line fill="none" stroke="#000000" stroke-width="5" stroke-linecap="round" stroke-miterlimit="10" x1="198.667" y1="216.583" x2="252.667" y2="197.583"/>
	
		<line fill="none" stroke="#000000" stroke-width="5" stroke-linecap="round" stroke-miterlimit="10" x1="252.667" y1="197.583" x2="305.834" y2="182.083"/>
	
		<line fill="none" stroke="#000000" stroke-width="5" stroke-linecap="round" stroke-miterlimit="10" x1="305.834" y1="182.083" x2="362.667" y2="174.583"/>
	
		<line fill="none" stroke="#000000" stroke-width="5" stroke-linecap="round" stroke-miterlimit="10" x1="362.667" y1="174.583" x2="421.431" y2="171.764"/>
	
		<line fill="none" stroke="#000000" stroke-width="5" stroke-linecap="round" stroke-miterlimit="10" x1="421.431" y1="171.764" x2="479.167" y2="174.583"/>
	
		<line fill="none" stroke="#000000" stroke-width="5" stroke-linecap="round" stroke-miterlimit="10" x1="479.167" y1="174.583" x2="536.167" y2="189.25"/>
	
		<line fill="none" stroke="#000000" stroke-width="5" stroke-linecap="round" stroke-miterlimit="10" x1="115.834" y1="494.084" x2="173.417" y2="471.584"/>
	
		<line fill="none" stroke="#000000" stroke-width="5" stroke-linecap="round" stroke-miterlimit="10" x1="173.417" y1="471.584" x2="223.667" y2="439.418"/>
	
		<line fill="none" stroke="#000000" stroke-width="5" stroke-linecap="round" stroke-miterlimit="10" x1="223.667" y1="439.418" x2="267.167" y2="406.084"/>
	
		<line fill="none" stroke="#000000" stroke-width="5" stroke-linecap="round" stroke-miterlimit="10" x1="267.167" y1="406.084" x2="309.374" y2="365.294"/>
	
		<line fill="none" stroke="#000000" stroke-width="5" stroke-linecap="round" stroke-miterlimit="10" x1="309.374" y1="365.294" x2="342.667" y2="320.583"/>
	
		<line fill="none" stroke="#000000" stroke-width="5" stroke-linecap="round" stroke-miterlimit="10" x1="342.667" y1="320.583" x2="373.834" y2="273.583"/>
	
		<line fill="none" stroke="#000000" stroke-width="5" stroke-linecap="round" stroke-miterlimit="10" x1="373.834" y1="273.583" x2="400.167" y2="223.083"/>
	
		<line fill="none" stroke="#000000" stroke-width="5" stroke-linecap="round" stroke-miterlimit="10" x1="400.167" y1="223.083" x2="421.431" y2="171.764"/>
	
		<line fill="none" stroke="#000000" stroke-width="5" stroke-linecap="round" stroke-miterlimit="10" x1="421.431" y1="171.764" x2="434.167" y2="112.083"/>
	
		<line fill="none" stroke="#000000" stroke-width="5" stroke-linecap="round" stroke-miterlimit="10" x1="434.167" y1="112.083" x2="438.501" y2="52.083"/>
	
		<line fill="none" stroke="#000000" stroke-width="5" stroke-linecap="round" stroke-miterlimit="10" x1="277.167" y1="546.084" x2="245.167" y2="494.084"/>
	
		<line fill="none" stroke="#000000" stroke-width="5" stroke-linecap="round" stroke-miterlimit="10" x1="245.167" y1="494.084" x2="223.667" y2="439.418"/>
	
		<line fill="none" stroke="#000000" stroke-width="5" stroke-linecap="round" stroke-miterlimit="10" x1="223.667" y1="439.418" x2="209.292" y2="385.083"/>
	
		<line fill="none" stroke="#000000" stroke-width="5" stroke-linecap="round" stroke-miterlimit="10" x1="209.292" y1="385.083" x2="198.667" y2="328.917"/>
	
		<line fill="none" stroke="#000000" stroke-width="5" stroke-linecap="round" stroke-miterlimit="10" x1="198.667" y1="328.917" x2="198.667" y2="273.083"/>
	
		<line fill="none" stroke="#000000" stroke-width="5" stroke-linecap="round" stroke-miterlimit="10" x1="198.667" y1="273.083" x2="198.667" y2="216.583"/>
	
		<line fill="none" stroke="#000000" stroke-width="5" stroke-linecap="round" stroke-miterlimit="10" x1="198.667" y1="216.583" x2="206.667" y2="160.583"/>
	
		<line fill="none" stroke="#000000" stroke-width="5" stroke-linecap="round" stroke-miterlimit="10" x1="206.667" y1="160.583" x2="223.167" y2="106.75"/>
	
		<line fill="none" stroke="#000000" stroke-width="5" stroke-linecap="round" stroke-miterlimit="10" x1="223.167" y1="106.75" x2="246.167" y2="52.083"/>
	
		<line fill="none" stroke="#000000" stroke-width="5" stroke-linecap="round" stroke-miterlimit="10" x1="246.167" y1="52.083" x2="277.167" y2="2.083"/>
	
		<line fill="none" stroke="#000000" stroke-width="5" stroke-linecap="round" stroke-miterlimit="10" x1="438.501" y1="494.084" x2="434.167" y2="434.084"/>
	
		<line fill="none" stroke="#000000" stroke-width="5" stroke-linecap="round" stroke-miterlimit="10" x1="434.167" y1="434.084" x2="420.167" y2="377.583"/>
	
		<line fill="none" stroke="#000000" stroke-width="5" stroke-linecap="round" stroke-miterlimit="10" x1="420.167" y1="377.583" x2="400.167" y2="323.083"/>
	
		<line fill="none" stroke="#000000" stroke-width="5" stroke-linecap="round" stroke-miterlimit="10" x1="400.167" y1="323.083" x2="373.834" y2="273.583"/>
	
		<line fill="none" stroke="#000000" stroke-width="5" stroke-linecap="round" stroke-miterlimit="10" x1="373.834" y1="273.583" x2="342.667" y2="225.583"/>
	
		<line fill="none" stroke="#000000" stroke-width="5" stroke-linecap="round" stroke-miterlimit="10" x1="342.667" y1="225.583" x2="305.834" y2="182.083"/>
	
		<line fill="none" stroke="#000000" stroke-width="5" stroke-linecap="round" stroke-miterlimit="10" x1="305.834" y1="182.083" x2="267.167" y2="141.583"/>
	
		<line fill="none" stroke="#000000" stroke-width="5" stroke-linecap="round" stroke-miterlimit="10" x1="267.167" y1="141.583" x2="223.167" y2="106.75"/>
	
		<line fill="none" stroke="#000000" stroke-width="5" stroke-linecap="round" stroke-miterlimit="10" x1="223.167" y1="106.75" x2="173.417" y2="75.083"/>
	
		<line fill="none" stroke="#000000" stroke-width="5" stroke-linecap="round" stroke-miterlimit="10" x1="173.417" y1="75.083" x2="115.834" y2="52.083"/>
	
		<line fill="none" stroke="#000000" stroke-width="5" stroke-linecap="round" stroke-miterlimit="10" x1="57.167" y1="311.083" x2="57.167" y2="235.083"/>
	
		<line fill="none" stroke="#000000" stroke-width="5" stroke-linecap="round" stroke-miterlimit="10" x1="57.167" y1="235.083" x2="5.167" y2="273.083"/>
	
		<line fill="none" stroke="#000000" stroke-width="5" stroke-linecap="round" stroke-miterlimit="10" x1="5.167" y1="273.083" x2="57.167" y2="311.083"/>
	
		<line fill="none" stroke="#000000" stroke-width="5" stroke-linecap="round" stroke-miterlimit="10" x1="148.167" y1="304.583" x2="198.667" y2="273.083"/>
	
		<line fill="none" stroke="#000000" stroke-width="5" stroke-linecap="round" stroke-miterlimit="10" x1="198.667" y1="273.083" x2="148.167" y2="241.583"/>
	
		<line fill="none" stroke="#000000" stroke-width="5" stroke-linecap="round" stroke-miterlimit="10" x1="148.167" y1="241.583" x2="148.167" y2="304.583"/>
	
		<line fill="none" stroke="#000000" stroke-width="5" stroke-linecap="round" stroke-miterlimit="10" x1="206.667" y1="385.083" x2="252.667" y2="349.083"/>
	
		<line fill="none" stroke="#000000" stroke-width="5" stroke-linecap="round" stroke-miterlimit="10" x1="252.667" y1="349.083" x2="267.167" y2="406.084"/>
	
		<line fill="none" stroke="#000000" stroke-width="5" stroke-linecap="round" stroke-miterlimit="10" x1="267.167" y1="406.084" x2="206.667" y2="385.083"/>
	
		<line fill="none" stroke="#000000" stroke-width="5" stroke-linecap="round" stroke-miterlimit="10" x1="173.417" y1="471.584" x2="245.167" y2="494.084"/>
	
		<line fill="none" stroke="#000000" stroke-width="5" stroke-linecap="round" stroke-miterlimit="10" x1="245.167" y1="494.084" x2="192.167" y2="533.584"/>
	
		<line fill="none" stroke="#000000" stroke-width="5" stroke-linecap="round" stroke-miterlimit="10" x1="192.167" y1="533.584" x2="173.417" y2="471.584"/>
	
		<line fill="none" stroke="#000000" stroke-width="5" stroke-linecap="round" stroke-miterlimit="10" x1="252.667" y1="197.583" x2="267.167" y2="141.583"/>
	
		<line fill="none" stroke="#000000" stroke-width="5" stroke-linecap="round" stroke-miterlimit="10" x1="267.167" y1="141.583" x2="206.667" y2="160.583"/>
	
		<line fill="none" stroke="#000000" stroke-width="5" stroke-linecap="round" stroke-miterlimit="10" x1="206.667" y1="160.583" x2="252.667" y2="197.583"/>
	
		<line fill="none" stroke="#000000" stroke-width="5" stroke-linecap="round" stroke-miterlimit="10" x1="173.417" y1="75.083" x2="246.167" y2="52.083"/>
	
		<line fill="none" stroke="#000000" stroke-width="5" stroke-linecap="round" stroke-miterlimit="10" x1="246.167" y1="52.083" x2="193.167" y2="16.583"/>
	
		<line fill="none" stroke="#000000" stroke-width="5" stroke-linecap="round" stroke-miterlimit="10" x1="193.167" y1="16.583" x2="173.417" y2="75.083"/>
	
		<line fill="none" stroke="#000000" stroke-width="5" stroke-linecap="round" stroke-miterlimit="10" x1="434.167" y1="112.083" x2="479.167" y2="174.583"/>
	
		<line fill="none" stroke="#000000" stroke-width="5" stroke-linecap="round" stroke-miterlimit="10" x1="479.167" y1="174.583" x2="497.167" y2="112.083"/>
	
		<line fill="none" stroke="#000000" stroke-width="5" stroke-linecap="round" stroke-miterlimit="10" x1="497.167" y1="112.083" x2="434.167" y2="112.083"/>
	
		<line fill="none" stroke="#000000" stroke-width="5" stroke-linecap="round" stroke-miterlimit="10" x1="342.667" y1="225.583" x2="400.167" y2="223.083"/>
	
		<line fill="none" stroke="#000000" stroke-width="5" stroke-linecap="round" stroke-miterlimit="10" x1="400.167" y1="223.083" x2="362.667" y2="174.583"/>
	
		<line fill="none" stroke="#000000" stroke-width="5" stroke-linecap="round" stroke-miterlimit="10" x1="362.667" y1="174.583" x2="342.667" y2="225.583"/>
	
		<line fill="none" stroke="#000000" stroke-width="5" stroke-linecap="round" stroke-miterlimit="10" x1="342.667" y1="320.583" x2="362.667" y2="375.083"/>
	
		<line fill="none" stroke="#000000" stroke-width="5" stroke-linecap="round" stroke-miterlimit="10" x1="362.667" y1="375.083" x2="400.167" y2="323.083"/>
	
		<line fill="none" stroke="#000000" stroke-width="5" stroke-linecap="round" stroke-miterlimit="10" x1="400.167" y1="323.083" x2="342.667" y2="320.583"/>
	
		<line fill="none" stroke="#000000" stroke-width="5" stroke-linecap="round" stroke-miterlimit="10" x1="434.167" y1="434.084" x2="479.167" y2="370.083"/>
	
		<line fill="none" stroke="#000000" stroke-width="5" stroke-linecap="round" stroke-miterlimit="10" x1="479.167" y1="370.083" x2="497.167" y2="434.084"/>
	
		<line fill="none" stroke="#000000" stroke-width="5" stroke-linecap="round" stroke-miterlimit="10" x1="497.167" y1="434.084" x2="434.167" y2="434.084"/>
</g>
</svg>
