<?xml version="1.0" encoding="utf-8"?>
<!-- Generator: Adobe Illustrator 15.0.0, SVG Export Plug-In . SVG Version: 6.00 Build 0)  -->
<!DOCTYPE svg PUBLIC "-//W3C//DTD SVG 1.1//EN" "http://www.w3.org/Graphics/SVG/1.1/DTD/svg11.dtd">
<svg version="1.1" id="Layer_1" xmlns="http://www.w3.org/2000/svg" xmlns:xlink="http://www.w3.org/1999/xlink" x="0px" y="0px"
	 width="612px" height="792px" viewBox="0 0 612 792" enable-background="new 0 0 612 792" xml:space="preserve">
<line fill="none" stroke="#000000" stroke-width="5" stroke-linecap="round" stroke-miterlimit="10" x1="282.5" y1="219.438" x2="223" y2="238.938"/>
<line fill="none" stroke="#000000" stroke-width="5" stroke-linecap="round" stroke-miterlimit="10" x1="223" y1="238.938" x2="223" y2="301.938"/>
<line fill="none" stroke="#000000" stroke-width="5" stroke-linecap="round" stroke-miterlimit="10" x1="223" y1="301.938" x2="282.5" y2="319.438"/>
<line fill="none" stroke="#000000" stroke-width="5" stroke-linecap="round" stroke-miterlimit="10" x1="282.5" y1="319.438" x2="320" y2="268.438"/>
<line fill="none" stroke="#000000" stroke-width="5" stroke-linecap="round" stroke-miterlimit="10" x1="320" y1="268.438" x2="282.5" y2="219.438"/>
<line fill="none" stroke="#000000" stroke-width="5" stroke-linecap="round" stroke-miterlimit="10" x1="282.5" y1="219.438" x2="301.25" y2="158.438"/>
<line fill="none" stroke="#000000" stroke-width="5" stroke-linecap="round" stroke-miterlimit="10" x1="301.25" y1="158.438" x2="252.75" y2="110.938"/>
<line fill="none" stroke="#000000" stroke-width="5" stroke-linecap="round" stroke-miterlimit="10" x1="252.75" y1="110.938" x2="183.5" y2="134.688"/>
<line fill="none" stroke="#000000" stroke-width="5" stroke-linecap="round" stroke-miterlimit="10" x1="183.5" y1="134.688" x2="172" y2="202.938"/>
<line fill="none" stroke="#000000" stroke-width="5" stroke-linecap="round" stroke-miterlimit="10" x1="172" y1="202.938" x2="223" y2="238.938"/>
<line fill="none" stroke="#000000" stroke-width="5" stroke-linecap="round" stroke-miterlimit="10" x1="172" y1="202.938" x2="112" y2="233.438"/>
<line fill="none" stroke="#000000" stroke-width="5" stroke-linecap="round" stroke-miterlimit="10" x1="112" y1="233.438" x2="112" y2="307.438"/>
<line fill="none" stroke="#000000" stroke-width="5" stroke-linecap="round" stroke-miterlimit="10" x1="112" y1="307.438" x2="172" y2="341.438"/>
<line fill="none" stroke="#000000" stroke-width="5" stroke-linecap="round" stroke-miterlimit="10" x1="172" y1="341.438" x2="223" y2="301.938"/>
<line fill="none" stroke="#000000" stroke-width="5" stroke-linecap="round" stroke-miterlimit="10" x1="282.5" y1="319.438" x2="303.5" y2="382.438"/>
<line fill="none" stroke="#000000" stroke-width="5" stroke-linecap="round" stroke-miterlimit="10" x1="303.5" y1="382.438" x2="252.75" y2="428.438"/>
<line fill="none" stroke="#000000" stroke-width="5" stroke-linecap="round" stroke-miterlimit="10" x1="252.75" y1="428.438" x2="183.5" y2="405.438"/>
<line fill="none" stroke="#000000" stroke-width="5" stroke-linecap="round" stroke-miterlimit="10" x1="183.5" y1="405.438" x2="172" y2="337.438"/>
<line fill="none" stroke="#000000" stroke-width="5" stroke-linecap="round" stroke-miterlimit="10" x1="183.5" y1="405.438" x2="120.5" y2="431.938"/>
<line fill="none" stroke="#000000" stroke-width="5" stroke-linecap="round" stroke-miterlimit="10" x1="120.5" y1="431.938" x2="68.5" y2="358.438"/>
<line fill="none" stroke="#000000" stroke-width="5" stroke-linecap="round" stroke-miterlimit="10" x1="68.5" y1="358.438" x2="112" y2="307.438"/>
<line fill="none" stroke="#000000" stroke-width="5" stroke-linecap="round" stroke-miterlimit="10" x1="3" y1="324.438" x2="68.5" y2="358.438"/>
<line fill="none" stroke="#000000" stroke-width="5" stroke-linecap="round" stroke-miterlimit="10" x1="3" y1="324.438" x2="3" y2="215.438"/>
<line fill="none" stroke="#000000" stroke-width="5" stroke-linecap="round" stroke-miterlimit="10" x1="3" y1="215.438" x2="68.5" y2="181.438"/>
<line fill="none" stroke="#000000" stroke-width="5" stroke-linecap="round" stroke-miterlimit="10" x1="68.5" y1="181.438" x2="112" y2="233.438"/>
<line fill="none" stroke="#000000" stroke-width="5" stroke-linecap="round" stroke-miterlimit="10" x1="68.5" y1="181.438" x2="120.5" y2="110.938"/>
<line fill="none" stroke="#000000" stroke-width="5" stroke-linecap="round" stroke-miterlimit="10" x1="120.5" y1="110.938" x2="183.5" y2="134.688"/>
<line fill="none" stroke="#000000" stroke-width="5" stroke-linecap="round" stroke-miterlimit="10" x1="120.5" y1="110.938" x2="133" y2="34.938"/>
<line fill="none" stroke="#000000" stroke-width="5" stroke-linecap="round" stroke-miterlimit="10" x1="133" y1="34.938" x2="238" y2="1.438"/>
<line fill="none" stroke="#000000" stroke-width="5" stroke-linecap="round" stroke-miterlimit="10" x1="238" y1="1.438" x2="289" y2="55.438"/>
<line fill="none" stroke="#000000" stroke-width="5" stroke-linecap="round" stroke-miterlimit="10" x1="289" y1="55.438" x2="252.75" y2="110.938"/>
<line fill="none" stroke="#000000" stroke-width="5" stroke-linecap="round" stroke-miterlimit="10" x1="291.875" y1="55.438" x2="375" y2="83.188"/>
<line fill="none" stroke="#000000" stroke-width="5" stroke-linecap="round" stroke-miterlimit="10" x1="375" y1="83.188" x2="369" y2="149.938"/>
<line fill="none" stroke="#000000" stroke-width="5" stroke-linecap="round" stroke-miterlimit="10" x1="369" y1="149.938" x2="301.25" y2="158.438"/>
<line fill="none" stroke="#000000" stroke-width="5" stroke-linecap="round" stroke-miterlimit="10" x1="369" y1="149.938" x2="415" y2="209.938"/>
<line fill="none" stroke="#000000" stroke-width="5" stroke-linecap="round" stroke-miterlimit="10" x1="415" y1="209.938" x2="382.5" y2="269.938"/>
<line fill="none" stroke="#000000" stroke-width="5" stroke-linecap="round" stroke-miterlimit="10" x1="382.5" y1="269.938" x2="320" y2="268.438"/>
<line fill="none" stroke="#000000" stroke-width="5" stroke-linecap="round" stroke-miterlimit="10" x1="382.5" y1="269.938" x2="415" y2="332.938"/>
<line fill="none" stroke="#000000" stroke-width="5" stroke-linecap="round" stroke-miterlimit="10" x1="415" y1="332.938" x2="369" y2="392.438"/>
<line fill="none" stroke="#000000" stroke-width="5" stroke-linecap="round" stroke-miterlimit="10" x1="369" y1="392.438" x2="303.5" y2="382.438"/>
<line fill="none" stroke="#000000" stroke-width="5" stroke-linecap="round" stroke-miterlimit="10" x1="120.5" y1="431.938" x2="132" y2="502.438"/>
<line fill="none" stroke="#000000" stroke-width="5" stroke-linecap="round" stroke-miterlimit="10" x1="132" y1="502.438" x2="237.5" y2="537.438"/>
<line fill="none" stroke="#000000" stroke-width="5" stroke-linecap="round" stroke-miterlimit="10" x1="237.5" y1="537.438" x2="289.5" y2="484.938"/>
<line fill="none" stroke="#000000" stroke-width="5" stroke-linecap="round" stroke-miterlimit="10" x1="289.5" y1="484.938" x2="252.75" y2="428.438"/>
<line fill="none" stroke="#000000" stroke-width="5" stroke-linecap="round" stroke-miterlimit="10" x1="289.5" y1="484.938" x2="372" y2="456.688"/>
<line fill="none" stroke="#000000" stroke-width="5" stroke-linecap="round" stroke-miterlimit="10" x1="372" y1="456.688" x2="369" y2="392.438"/>
<line fill="none" stroke="#000000" stroke-width="5" stroke-linecap="round" stroke-miterlimit="10" x1="372" y1="456.688" x2="449.5" y2="470.812"/>
<line fill="none" stroke="#000000" stroke-width="5" stroke-linecap="round" stroke-miterlimit="10" x1="449.5" y1="470.812" x2="511.018" y2="380.429"/>
<line fill="none" stroke="#000000" stroke-width="5" stroke-linecap="round" stroke-miterlimit="10" x1="511.018" y1="380.429" x2="478" y2="312.938"/>
<line fill="none" stroke="#000000" stroke-width="5" stroke-linecap="round" stroke-miterlimit="10" x1="478" y1="312.938" x2="410.75" y2="332.938"/>
<line fill="none" stroke="#000000" stroke-width="5" stroke-linecap="round" stroke-miterlimit="10" x1="478" y1="312.938" x2="478" y2="225.938"/>
<line fill="none" stroke="#000000" stroke-width="5" stroke-linecap="round" stroke-miterlimit="10" x1="478" y1="225.938" x2="415" y2="209.938"/>
<line fill="none" stroke="#000000" stroke-width="5" stroke-linecap="round" stroke-miterlimit="10" x1="478" y1="225.938" x2="512" y2="158.438"/>
<line fill="none" stroke="#000000" stroke-width="5" stroke-linecap="round" stroke-miterlimit="10" x1="375" y1="83.188" x2="446.5" y2="69.312"/>
<line fill="none" stroke="#000000" stroke-width="5" stroke-linecap="round" stroke-miterlimit="10" x1="446.5" y1="69.312" x2="512" y2="158.438"/>
<line fill="none" stroke="#000000" stroke-width="5" stroke-linecap="round" stroke-miterlimit="10" x1="68.5" y1="181.438" x2="126.75" y2="168.812"/>
<line fill="none" stroke="#000000" stroke-width="5" stroke-linecap="round" stroke-miterlimit="10" x1="126.75" y1="168.812" x2="120.5" y2="110.938"/>
<line fill="none" stroke="#000000" stroke-width="5" stroke-linecap="round" stroke-miterlimit="10" x1="183.5" y1="134.688" x2="126.75" y2="168.812"/>
<line fill="none" stroke="#000000" stroke-width="5" stroke-linecap="round" stroke-miterlimit="10" x1="126.75" y1="168.812" x2="173.099" y2="198.438"/>
<line fill="none" stroke="#000000" stroke-width="5" stroke-linecap="round" stroke-miterlimit="10" x1="126.75" y1="168.812" x2="112" y2="233.438"/>
<line fill="none" stroke="#000000" stroke-width="5" stroke-linecap="round" stroke-miterlimit="10" x1="112" y1="310.688" x2="126.75" y2="371.438"/>
<line fill="none" stroke="#000000" stroke-width="5" stroke-linecap="round" stroke-miterlimit="10" x1="126.75" y1="371.438" x2="123" y2="431.938"/>
<line fill="none" stroke="#000000" stroke-width="5" stroke-linecap="round" stroke-miterlimit="10" x1="180" y1="405.438" x2="126.75" y2="371.438"/>
<line fill="none" stroke="#000000" stroke-width="5" stroke-linecap="round" stroke-miterlimit="10" x1="126.75" y1="371.438" x2="172" y2="341.438"/>
<line fill="none" stroke="#000000" stroke-width="5" stroke-linecap="round" stroke-miterlimit="10" x1="126.75" y1="371.438" x2="68.5" y2="358.438"/>
<line fill="none" stroke="#000000" stroke-width="5" stroke-linecap="round" stroke-miterlimit="10" x1="291.875" y1="481.438" x2="320.375" y2="431.938"/>
<line fill="none" stroke="#000000" stroke-width="5" stroke-linecap="round" stroke-miterlimit="10" x1="320.375" y1="431.938" x2="369" y2="392.438"/>
<line fill="none" stroke="#000000" stroke-width="5" stroke-linecap="round" stroke-miterlimit="10" x1="303.5" y1="382.438" x2="320.375" y2="431.938"/>
<line fill="none" stroke="#000000" stroke-width="5" stroke-linecap="round" stroke-miterlimit="10" x1="252.75" y1="428.438" x2="320.375" y2="431.938"/>
<line fill="none" stroke="#000000" stroke-width="5" stroke-linecap="round" stroke-miterlimit="10" x1="320.375" y1="431.938" x2="372" y2="456.688"/>
<line fill="none" stroke="#000000" stroke-width="5" stroke-linecap="round" stroke-miterlimit="10" x1="223" y1="301.938" x2="266.5" y2="270.438"/>
<line fill="none" stroke="#000000" stroke-width="5" stroke-linecap="round" stroke-miterlimit="10" x1="266.5" y1="270.438" x2="282.5" y2="219.438"/>
<line fill="none" stroke="#000000" stroke-width="5" stroke-linecap="round" stroke-miterlimit="10" x1="263.5" y1="269.188" x2="223" y2="238.938"/>
<line fill="none" stroke="#000000" stroke-width="5" stroke-linecap="round" stroke-miterlimit="10" x1="263.5" y1="269.188" x2="320" y2="268.438"/>
<line fill="none" stroke="#000000" stroke-width="5" stroke-linecap="round" stroke-miterlimit="10" x1="282.5" y1="319.438" x2="266.5" y2="270.438"/>
<line fill="none" stroke="#000000" stroke-width="5" stroke-linecap="round" stroke-miterlimit="10" x1="386.5" y1="269.438" x2="439.5" y2="268.438"/>
<line fill="none" stroke="#000000" stroke-width="5" stroke-linecap="round" stroke-miterlimit="10" x1="439.5" y1="268.438" x2="478" y2="225.938"/>
<line fill="none" stroke="#000000" stroke-width="5" stroke-linecap="round" stroke-miterlimit="10" x1="417.938" y1="210.684" x2="439.5" y2="268.438"/>
<line fill="none" stroke="#000000" stroke-width="5" stroke-linecap="round" stroke-miterlimit="10" x1="439.5" y1="268.438" x2="415" y2="327.938"/>
<line fill="none" stroke="#000000" stroke-width="5" stroke-linecap="round" stroke-miterlimit="10" x1="439.5" y1="268.438" x2="478" y2="312.938"/>
<line fill="none" stroke="#000000" stroke-width="5" stroke-linecap="round" stroke-miterlimit="10" x1="291.875" y1="55.438" x2="319.254" y2="105.875"/>
<line fill="none" stroke="#000000" stroke-width="5" stroke-linecap="round" stroke-miterlimit="10" x1="319.254" y1="105.875" x2="303.5" y2="158.438"/>
<line fill="none" stroke="#000000" stroke-width="5" stroke-linecap="round" stroke-miterlimit="10" x1="255" y1="110.938" x2="318.446" y2="108.571"/>
<line fill="none" stroke="#000000" stroke-width="5" stroke-linecap="round" stroke-miterlimit="10" x1="318.446" y1="108.571" x2="372" y2="83.664"/>
<line fill="none" stroke="#000000" stroke-width="5" stroke-linecap="round" stroke-miterlimit="10" x1="319.254" y1="105.875" x2="369.303" y2="146.574"/>
<line stroke="#000000" stroke-width="5" stroke-linecap="round" stroke-miterlimit="10" x1="3" y1="215.438" x2="54" y2="269.188"/>
<line stroke="#000000" stroke-width="5" stroke-linecap="round" stroke-miterlimit="10" x1="54" y1="269.188" x2="3" y2="324.438"/>
<line stroke="#000000" stroke-width="5" stroke-linecap="round" stroke-miterlimit="10" x1="3" y1="324.438" x2="48" y2="431.938"/>
<line stroke="#000000" stroke-width="5" stroke-linecap="round" stroke-miterlimit="10" x1="48" y1="431.938" x2="68.5" y2="358.438"/>
<line stroke="#000000" stroke-width="5" stroke-linecap="round" stroke-miterlimit="10" x1="48" y1="431.938" x2="123" y2="431.938"/>
<line stroke="#000000" stroke-width="5" stroke-linecap="round" stroke-miterlimit="10" x1="48" y1="431.938" x2="132" y2="502.438"/>
<line stroke="#000000" stroke-width="5" stroke-linecap="round" stroke-miterlimit="10" x1="132" y1="502.438" x2="201" y2="472.938"/>
<line stroke="#000000" stroke-width="5" stroke-linecap="round" stroke-miterlimit="10" x1="201" y1="472.938" x2="124.87" y2="433"/>
<line stroke="#000000" stroke-width="5" stroke-linecap="round" stroke-miterlimit="10" x1="183.5" y1="405.438" x2="201" y2="472.938"/>
<line stroke="#000000" stroke-width="5" stroke-linecap="round" stroke-miterlimit="10" x1="201" y1="472.938" x2="237.5" y2="537.438"/>
<line stroke="#000000" stroke-width="5" stroke-linecap="round" stroke-miterlimit="10" x1="289.5" y1="484.938" x2="201" y2="472.938"/>
<line stroke="#000000" stroke-width="5" stroke-linecap="round" stroke-miterlimit="10" x1="201" y1="472.938" x2="252.75" y2="428.438"/>
<line stroke="#000000" stroke-width="5" stroke-linecap="round" stroke-miterlimit="10" x1="252.75" y1="428.438" x2="235" y2="364.938"/>
<line stroke="#000000" stroke-width="5" stroke-linecap="round" stroke-miterlimit="10" x1="235" y1="364.938" x2="183.5" y2="405.438"/>
<line stroke="#000000" stroke-width="5" stroke-linecap="round" stroke-miterlimit="10" x1="172" y1="341.438" x2="235" y2="364.938"/>
<line stroke="#000000" stroke-width="5" stroke-linecap="round" stroke-miterlimit="10" x1="235" y1="364.938" x2="223" y2="301.938"/>
<line stroke="#000000" stroke-width="5" stroke-linecap="round" stroke-miterlimit="10" x1="283.667" y1="322.938" x2="237.5" y2="364.938"/>
<line stroke="#000000" stroke-width="5" stroke-linecap="round" stroke-miterlimit="10" x1="237.5" y1="364.938" x2="303.5" y2="378.188"/>
<line stroke="#000000" stroke-width="5" stroke-linecap="round" stroke-miterlimit="10" x1="303.5" y1="378.188" x2="351.25" y2="327.938"/>
<line stroke="#000000" stroke-width="5" stroke-linecap="round" stroke-miterlimit="10" x1="351.25" y1="327.938" x2="283.667" y2="322.938"/>
<line stroke="#000000" stroke-width="5" stroke-linecap="round" stroke-miterlimit="10" x1="320" y1="268.438" x2="351.25" y2="327.938"/>
<line stroke="#000000" stroke-width="5" stroke-linecap="round" stroke-miterlimit="10" x1="351.25" y1="327.938" x2="382.5" y2="269.938"/>
<line stroke="#000000" stroke-width="5" stroke-linecap="round" stroke-miterlimit="10" x1="351.25" y1="327.938" x2="415" y2="332.938"/>
<line stroke="#000000" stroke-width="5" stroke-linecap="round" stroke-miterlimit="10" x1="351.25" y1="327.938" x2="370.995" y2="391.647"/>
<line stroke="#000000" stroke-width="5" stroke-linecap="round" stroke-miterlimit="10" x1="351.25" y1="529.438" x2="289.5" y2="484.938"/>
<line stroke="#000000" stroke-width="5" stroke-linecap="round" stroke-miterlimit="10" x1="237.5" y1="537.438" x2="351.25" y2="529.438"/>
<line stroke="#000000" stroke-width="5" stroke-linecap="round" stroke-miterlimit="10" x1="351.25" y1="529.438" x2="372" y2="456.688"/>
<line stroke="#000000" stroke-width="5" stroke-linecap="round" stroke-miterlimit="10" x1="351.25" y1="529.438" x2="449.5" y2="470.812"/>
<line stroke="#000000" stroke-width="5" stroke-linecap="round" stroke-miterlimit="10" x1="449.5" y1="470.812" x2="439.5" y2="395.188"/>
<line stroke="#000000" stroke-width="5" stroke-linecap="round" stroke-miterlimit="10" x1="439.5" y1="395.188" x2="372" y2="456.688"/>
<line stroke="#000000" stroke-width="5" stroke-linecap="round" stroke-miterlimit="10" x1="370.995" y1="391.647" x2="439.5" y2="395.188"/>
<line stroke="#000000" stroke-width="5" stroke-linecap="round" stroke-miterlimit="10" x1="439.5" y1="395.188" x2="511.018" y2="380.429"/>
<line stroke="#000000" stroke-width="5" stroke-linecap="round" stroke-miterlimit="10" x1="415" y1="332.938" x2="439.5" y2="395.188"/>
<line stroke="#000000" stroke-width="5" stroke-linecap="round" stroke-miterlimit="10" x1="439.5" y1="395.188" x2="478" y2="312.938"/>
<line stroke="#000000" stroke-width="5" stroke-linecap="round" stroke-miterlimit="10" x1="478" y1="312.938" x2="540" y2="269.438"/>
<line stroke="#000000" stroke-width="5" stroke-linecap="round" stroke-miterlimit="10" x1="540" y1="269.438" x2="511.018" y2="380.429"/>
<line stroke="#000000" stroke-width="5" stroke-linecap="round" stroke-miterlimit="10" x1="478" y1="225.938" x2="540" y2="269.438"/>
<line stroke="#000000" stroke-width="5" stroke-linecap="round" stroke-miterlimit="10" x1="540" y1="269.438" x2="512" y2="158.438"/>
<line stroke="#000000" stroke-width="5" stroke-linecap="round" stroke-miterlimit="10" x1="512" y1="158.438" x2="439.5" y2="142.438"/>
<line stroke="#000000" stroke-width="5" stroke-linecap="round" stroke-miterlimit="10" x1="439.5" y1="142.438" x2="415" y2="209.938"/>
<line stroke="#000000" stroke-width="5" stroke-linecap="round" stroke-miterlimit="10" x1="439.5" y1="142.438" x2="478" y2="225.938"/>
<line stroke="#000000" stroke-width="5" stroke-linecap="round" stroke-miterlimit="10" x1="439.5" y1="142.438" x2="446.5" y2="69.312"/>
<line stroke="#000000" stroke-width="5" stroke-linecap="round" stroke-miterlimit="10" x1="375" y1="84.938" x2="443" y2="143.21"/>
<line stroke="#000000" stroke-width="5" stroke-linecap="round" stroke-miterlimit="10" x1="443" y1="143.21" x2="372" y2="149.938"/>
<line stroke="#000000" stroke-width="5" stroke-linecap="round" stroke-miterlimit="10" x1="372" y1="149.938" x2="348.5" y2="209.938"/>
<line stroke="#000000" stroke-width="5" stroke-linecap="round" stroke-miterlimit="10" x1="348.5" y1="209.938" x2="320" y2="268.438"/>
<line stroke="#000000" stroke-width="5" stroke-linecap="round" stroke-miterlimit="10" x1="348.5" y1="209.938" x2="382.5" y2="269.938"/>
<line stroke="#000000" stroke-width="5" stroke-linecap="round" stroke-miterlimit="10" x1="415" y1="209.938" x2="348.5" y2="209.938"/>
<line stroke="#000000" stroke-width="5" stroke-linecap="round" stroke-miterlimit="10" x1="348.5" y1="209.938" x2="282.5" y2="219.438"/>
<line stroke="#000000" stroke-width="5" stroke-linecap="round" stroke-miterlimit="10" x1="303.5" y1="158.438" x2="348.5" y2="209.938"/>
<line stroke="#000000" stroke-width="5" stroke-linecap="round" stroke-miterlimit="10" x1="68.5" y1="358.438" x2="54" y2="269.188"/>
<line stroke="#000000" stroke-width="5" stroke-linecap="round" stroke-miterlimit="10" x1="54" y1="269.188" x2="112" y2="310.688"/>
<line stroke="#000000" stroke-width="5" stroke-linecap="round" stroke-miterlimit="10" x1="112" y1="310.688" x2="167.5" y2="268.438"/>
<line stroke="#000000" stroke-width="5" stroke-linecap="round" stroke-miterlimit="10" x1="167.5" y1="268.438" x2="223" y2="238.938"/>
<line stroke="#000000" stroke-width="5" stroke-linecap="round" stroke-miterlimit="10" x1="168.986" y1="204.47" x2="164.873" y2="270.438"/>
<line stroke="#000000" stroke-width="5" stroke-linecap="round" stroke-miterlimit="10" x1="164.873" y1="270.438" x2="172" y2="341.438"/>
<line stroke="#000000" stroke-width="5" stroke-linecap="round" stroke-miterlimit="10" x1="223" y1="301.938" x2="164.873" y2="270.438"/>
<line stroke="#000000" stroke-width="5" stroke-linecap="round" stroke-miterlimit="10" x1="164.873" y1="270.438" x2="112" y2="233.438"/>
<line stroke="#000000" stroke-width="5" stroke-linecap="round" stroke-miterlimit="10" x1="112" y1="233.438" x2="54" y2="269.188"/>
<line stroke="#000000" stroke-width="5" stroke-linecap="round" stroke-miterlimit="10" x1="54" y1="269.188" x2="68.5" y2="179.938"/>
<line stroke="#000000" stroke-width="5" stroke-linecap="round" stroke-miterlimit="10" x1="3" y1="215.438" x2="45" y2="110.938"/>
<line stroke="#000000" stroke-width="5" stroke-linecap="round" stroke-miterlimit="10" x1="45" y1="110.938" x2="68.5" y2="179.938"/>
<line stroke="#000000" stroke-width="5" stroke-linecap="round" stroke-miterlimit="10" x1="45" y1="110.938" x2="120.5" y2="110.938"/>
<line stroke="#000000" stroke-width="5" stroke-linecap="round" stroke-miterlimit="10" x1="45" y1="110.938" x2="133" y2="34.938"/>
<line stroke="#000000" stroke-width="5" stroke-linecap="round" stroke-miterlimit="10" x1="133" y1="34.938" x2="200" y2="65.938"/>
<line stroke="#000000" stroke-width="5" stroke-linecap="round" stroke-miterlimit="10" x1="200" y1="65.938" x2="255" y2="110.938"/>
<line stroke="#000000" stroke-width="5" stroke-linecap="round" stroke-miterlimit="10" x1="183.5" y1="131.438" x2="200" y2="65.938"/>
<line stroke="#000000" stroke-width="5" stroke-linecap="round" stroke-miterlimit="10" x1="200" y1="65.938" x2="238" y2="1.438"/>
<line stroke="#000000" stroke-width="5" stroke-linecap="round" stroke-miterlimit="10" x1="289" y1="55.438" x2="200" y2="65.938"/>
<line stroke="#000000" stroke-width="5" stroke-linecap="round" stroke-miterlimit="10" x1="200" y1="65.938" x2="120.5" y2="110.938"/>
<line stroke="#000000" stroke-width="5" stroke-linecap="round" stroke-miterlimit="10" x1="183.5" y1="134.688" x2="235" y2="174.938"/>
<line stroke="#000000" stroke-width="5" stroke-linecap="round" stroke-miterlimit="10" x1="235" y1="174.938" x2="282.5" y2="219.438"/>
<line stroke="#000000" stroke-width="5" stroke-linecap="round" stroke-miterlimit="10" x1="226.375" y1="237.831" x2="235" y2="174.938"/>
<line stroke="#000000" stroke-width="5" stroke-linecap="round" stroke-miterlimit="10" x1="235" y1="174.938" x2="255" y2="110.938"/>
<line stroke="#000000" stroke-width="5" stroke-linecap="round" stroke-miterlimit="10" x1="303.5" y1="158.438" x2="235" y2="174.938"/>
<line stroke="#000000" stroke-width="5" stroke-linecap="round" stroke-miterlimit="10" x1="235" y1="174.938" x2="172" y2="202.938"/>
<line stroke="#000000" stroke-width="5" stroke-linecap="round" stroke-miterlimit="10" x1="291.875" y1="55.438" x2="351.25" y2="11.438"/>
<line stroke="#000000" stroke-width="5" stroke-linecap="round" stroke-miterlimit="10" x1="351.25" y1="11.438" x2="375" y2="84.938"/>
<line stroke="#000000" stroke-width="5" stroke-linecap="round" stroke-miterlimit="10" x1="446.5" y1="69.312" x2="351.25" y2="11.438"/>
<line stroke="#000000" stroke-width="5" stroke-linecap="round" stroke-miterlimit="10" x1="351.25" y1="11.438" x2="238" y2="1.438"/>
</svg>
